<?xml version="1.0" encoding="UTF-8"?>
<svg id="Camada_2" data-name="Camada 2" xmlns="http://www.w3.org/2000/svg" viewBox="0 0 66.77 13.25">
  <defs>
    <style>
      .cls-1 {
        fill: #b2b2b2;
        stroke-width: 0px;
      }
    </style>
  </defs>
  <g id="Header">
    <g id="Cachola">
      <path class="cls-1" d="m62.5,9.43s-.16,1.05-1.09,1.05c-.63,0-.75-.32-.75-.95v-2.86c0-2.05-1.07-3.2-3.5-3.2s-4.11.95-4.14,2.59c0,.86.66,1.2.66,1.2.45-.77,1.45-1.38,2.61-1.38.93,0,1.23.38,1.23,1.11-2.8,0-4.72.75-4.93,2.84-.4.39-.98.71-1.81.71s-1.41-.3-1.75-1.09c2.09-1.27,3.38-3.84,3.38-6.22,0-1.95-.82-3.25-2.77-3.25-2.97,0-4.18,3-4.18,7.36,0,.62.04,1.2.12,1.72-.21.1-.5.19-.87.19-.18,0-.32-.02-.48-.04.07-.36.11-.73.11-1.11,0-3.05-1.57-4.72-4.11-4.72-3.02,0-4.47,2.41-4.47,4.91,0,.59.07,1.14.21,1.65-.18.27-.47.53-.93.53-.54,0-.79-.29-.79-.79,0-1.13.3-2.45.3-3.55,0-1.7-.8-2.77-2.48-2.77-1.93,0-2.63,1.86-2.63,1.86V.14l-3.27.41v8.33c-.3.57-1.21,1.61-3.04,1.61-1.45,0-2.38-.86-2.38-2.68,0-1.11.43-2.2,1.16-2.2.43,0,.71.46.71,1.2,0,1-.52,1.93-.52,1.93,0,0,.32.14.7.14,1,0,2.39-.89,2.39-2.63,0-1.63-1.09-2.8-3.02-2.8-2.57,0-4.5,1.98-4.5,4.84,0,.63.08,1.2.23,1.71-.16.25-.43.49-.87.49-.63,0-.75-.32-.75-.95v-2.86c0-2.05-1.07-3.2-3.5-3.2s-4.11.95-4.14,2.59c0,.86.66,1.2.66,1.2.45-.77,1.45-1.38,2.61-1.38.93,0,1.23.38,1.23,1.11-2.21,0-3.87.46-4.58,1.69-.02.03-.04.07-.05.1-.02.03-.03.06-.04.09h0c-.3.57-1.21,1.61-3.04,1.61-1.45,0-2.38-.86-2.38-2.68,0-1.11.43-2.2,1.16-2.2.43,0,.71.46.71,1.2,0,1-.52,1.93-.52,1.93,0,0,.32.14.7.14,1,0,2.39-.89,2.39-2.63,0-1.63-1.09-2.8-3.02-2.8C1.93,3.45,0,5.43,0,8.29s1.64,4.57,4.16,4.57c1.86,0,3.39-.74,4.18-1.72.31,1.02,1.14,1.69,2.26,1.69,2.13,0,2.79-1.77,2.79-1.77.27.88.98,1.77,2.54,1.77,1.26,0,2.23-.7,2.55-1.63.72,1.07,1.9,1.65,3.38,1.65,1.98,0,3.58-.83,4.32-1.91v1.69h3.29v-5.2c0-.96.46-1.43,1.07-1.43.45,0,.75.23.75.79,0,1-.27,2.14-.27,3.13,0,1.82,1.05,2.91,2.79,2.91,1.27,0,2.33-.7,2.7-1.64.69,1.07,1.83,1.73,3.39,1.73,1.64,0,2.95-.77,3.72-2.04.23.04.5.05.77.05.63,0,1.18-.17,1.54-.5.59,1.57,1.73,2.43,3.45,2.43s2.8-.53,3.5-1.29c.39.77,1.14,1.25,2.09,1.25,2.13,0,2.79-1.77,2.79-1.77.27.88.98,1.77,2.54,1.77s2.66-1.05,2.66-2.3c0-.93-.45-1.11-.45-1.11Zm-49.32-.38c0,.79-.36,1.57-1.38,1.57-.46,0-.68-.36-.68-.77,0-.64.48-1.34,2.05-1.41v.61Zm28.83-2.82c-.89,0-1.39.66-1.39,1.64,0,1.04.43,1.88,1.25,2.43-.27.29-.61.45-.98.45-1.04,0-1.73-.86-1.73-2.61,0-1.55.66-2.64,1.73-2.64.54,0,.95.25,1.21.73h-.09Zm6.68.7c0-2.41.3-4.86,1.29-4.86.46,0,.61.5.61,1.27,0,1.38-.57,3.45-1.88,4.41-.02-.25-.02-.54-.02-.82Zm8.84,2.13c0,.79-.36,1.57-1.38,1.57-.46,0-.68-.36-.68-.77,0-.64.48-1.34,2.05-1.41v.61Z"/>
      <path class="cls-1" d="m65.72,12.98c-.36,0-.69-.14-.94-.36.18.08.37.13.58.13.78,0,1.41-.63,1.41-1.41,0-.41-.18-.79-.47-1.04-.28-.23-.65-.37-1.04-.37-.92,0-1.66.74-1.66,1.66s.74,1.66,1.66,1.66c.43,0,.82-.16,1.12-.43-.2.11-.42.17-.66.17Z"/>
    </g>
  </g>
</svg>