<?xml version="1.0" encoding="UTF-8"?>
<svg id="Camada_2" data-name="Camada 2" xmlns="http://www.w3.org/2000/svg" viewBox="0 0 288.78 65.08">
  <defs>
    <style>
      .cls-1 {
        fill: #878787;
        stroke-width: 0px;
      }
    </style>
  </defs>
  <g id="Header">
    <g>
      <g>
        <path class="cls-1" d="m109.97,16.48c-.79-.45-1.59-.84-2.4-1.18-.81-.33-1.55-.62-2.23-.86-.68-.24-1.27-.42-1.78-.54-.5-.12-.84-.21-1.02-.27l-.65-.14c-.65-.15-1.35-.32-2.1-.5s-1.47-.42-2.15-.72c-.83-.36-1.47-.77-1.94-1.22-.65-.57-.97-1.27-.97-2.08,0-1.33.79-2.4,2.37-3.21.54-.24,1.17-.44,1.88-.59.72-.15,1.43-.23,2.15-.23,1.65,0,3.23.3,4.74.91,1,.42,1.99,1.04,2.96,1.86l4.57-3.89c-.29-.21-.62-.44-1-.7-.38-.26-.83-.52-1.37-.79-1.04-.51-2.44-1.03-4.2-1.54-1.76-.51-3.93-.77-6.51-.77-1.4,0-2.83.17-4.28.5-1.45.33-2.77.88-3.96,1.65s-2.14,1.77-2.88,2.99c-.74,1.22-1.1,2.72-1.1,4.5,0,2.69,1.63,4.95,4.9,6.79,1.4.79,2.81,1.4,4.22,1.86,1.42.45,2.5.77,3.26.95.14.06.25.09.32.09.11.06.23.1.38.11.14.02.3.05.48.11.57.15,1.22.32,1.94.5.72.18,1.4.42,2.05.72.79.3,1.43.69,1.94,1.18.65.6.97,1.28.97,2.04,0,1.24-.61,2.23-1.83,2.99-.57.33-1.25.6-2.02.79-.77.2-1.62.29-2.56.29-.5,0-1.15-.05-1.94-.14-.79-.09-1.63-.29-2.53-.59-1.47-.48-2.8-1.18-3.98-2.08l-4.47,3.76c1.51,1.03,3.43,1.94,5.76,2.74,2.33.8,4.99,1.2,7.96,1.2,1.86,0,3.55-.23,5.06-.68s2.79-1.09,3.85-1.92c1.06-.83,1.87-1.84,2.45-3.03.57-1.19.86-2.53.86-4.01,0-2.63-1.74-4.9-5.22-6.84Z"/>
        <polygon class="cls-1" points="277.75 .68 271.29 .68 260.21 .68 260.21 6.11 271.29 6.11 271.29 32.37 277.75 32.37 277.75 6.11 288.78 6.11 288.78 .68 277.75 .68"/>
        <polygon class="cls-1" points="38.99 32.37 64.33 32.37 64.33 26.94 45.44 26.94 45.44 19.24 54.95 19.24 54.95 13.81 45.44 13.81 45.44 6.11 64.33 6.11 64.33 .68 38.99 .68 38.99 32.37"/>
        <polygon class="cls-1" points="192.24 7.29 205.69 32.37 212.8 32.37 195.79 .68 188.69 .68 171.68 32.37 178.79 32.37 192.24 7.29"/>
        <rect class="cls-1" x="72.67" y="26.94" width="8.29" height="5.43"/>
        <polygon class="cls-1" points="236.7 17.37 244.74 32.37 251.85 32.37 243.8 17.37 236.7 17.37"/>
        <path class="cls-1" d="m29.33,18.7c-.86-1.33-2.01-2.41-3.44-3.26.65-.75,1.16-1.59,1.53-2.51.38-.92.56-1.89.56-2.92v-.09c0-1.27-.29-2.46-.86-3.58-.57-1.12-1.35-2.1-2.34-2.94-.99-.84-2.15-1.51-3.5-1.99-1.35-.48-2.77-.72-4.28-.72H0v31.69h19.64c1.51,0,2.92-.24,4.25-.72,1.33-.48,2.49-1.14,3.5-1.97,1-.83,1.79-1.81,2.37-2.94.57-1.13.86-2.33.86-3.6v-.09c0-1.57-.43-3.02-1.29-4.35ZM6.46,6.09h11.17s.03,0,.04,0c2.13,0,3.86,1.73,3.86,3.86s-1.73,3.86-3.86,3.86c-.02,0-.03,0-.05,0H6.46v-7.71Zm13.93,20.8h0s-13.93,0-13.93,0v-7.71h13.93c2.1.04,3.78,1.75,3.78,3.85s-1.69,3.81-3.78,3.85Z"/>
        <path class="cls-1" d="m251.85,9.91c0-1.27-.29-2.46-.86-3.58-.57-1.12-1.35-2.1-2.34-2.94-.99-.84-2.15-1.51-3.5-1.99-1.35-.48-2.77-.72-4.28-.72h-19.69v18.56h0v13.13h6.46v-5.46h0v-7.65h13.23c1.51,0,2.93-.24,4.28-.72,1.35-.48,2.51-1.15,3.5-1.99.99-.85,1.77-1.83,2.34-2.94.16-.3.29-.61.4-.93h0c.31-.84.47-1.73.47-2.66v-.09Zm-10.49,3.89h0s-13.93,0-13.93,0v-7.71h13.93c2.1.04,3.78,1.75,3.78,3.85s-1.69,3.81-3.78,3.85Z"/>
        <polygon class="cls-1" points="156.87 .68 156.87 .68 156.87 .68 143.42 25.76 129.97 .68 129.97 .68 123.53 .68 123.53 32.37 129.97 32.37 129.97 13.92 139.87 32.37 146.97 32.37 156.87 13.92 156.87 32.37 163.31 32.37 163.31 .68 156.87 .68"/>
        <rect class="cls-1" x="192.22" y="26.94" width="15.35" height="5.43"/>
        <polygon class="cls-1" points="192.24 26.93 189.31 32.37 196.42 32.37 199.34 26.93 192.24 26.93"/>
      </g>
      <g>
        <path class="cls-1" d="m89.76,45.58h3.24c.06,0,.1.03.1.1v.26c0,.06-.03.1-.1.1h-3.6c-.06,0-.1-.03-.1-.1v-6.68c0-.06.03-.1.1-.1h3.6c.06,0,.1.03.1.1v.25c0,.06-.03.1-.1.1h-3.24v2.86h2.66c.06,0,.1.03.1.1v.25c0,.06-.03.1-.1.1h-2.66v2.68Z"/>
        <path class="cls-1" d="m94.98,46.03c-.06,0-.1-.03-.1-.1v-6.68c0-.06.03-.1.1-.1h.27c.06,0,.1.03.1.1v6.33h3.24c.06,0,.1.03.1.1v.26c0,.06-.04.1-.1.1h-3.6Z"/>
        <path class="cls-1" d="m100.81,45.58h3.24c.06,0,.1.03.1.1v.26c0,.06-.03.1-.1.1h-3.6c-.06,0-.1-.03-.1-.1v-6.68c0-.06.03-.1.1-.1h3.6c.06,0,.1.03.1.1v.25c0,.06-.03.1-.1.1h-3.24v2.86h2.66c.06,0,.1.03.1.1v.25c0,.06-.03.1-.1.1h-2.66v2.68Z"/>
        <path class="cls-1" d="m109.82,39.15c.06,0,.1.03.1.1v.25c0,.06-.03.1-.1.1h-1.83v6.33c0,.06-.03.1-.1.1h-.27c-.06,0-.1-.03-.1-.1v-6.33h-1.83c-.06,0-.1-.03-.1-.1v-.25c0-.06.04-.1.1-.1h4.12Z"/>
        <path class="cls-1" d="m113.37,39.15c.45,0,.84.07,1.17.21s.57.3.72.48c.15.18.28.39.37.63.09.24.13.43.15.55.02.12.02.23.02.35v.55c0,.11-.01.22-.03.35-.02.12-.06.3-.13.53-.15.47-.55.9-1.15,1.12l.88,2.02c0,.06-.03.08-.08.08h-.3s-.07-.03-.1-.07l-.85-1.9c-.22.04-.44.05-.68.06h-1.53v1.82c0,.06-.03.1-.1.1h-.27c-.06,0-.1-.03-.1-.1v-6.68c0-.06.03-.1.1-.1h1.89Zm-1.53.45v4.06h1.51c1.33,0,2-.63,1.99-1.9v-.27c0-1.26-.66-1.89-1.99-1.89h-1.51Z"/>
        <path class="cls-1" d="m119.59,39.11c.46,0,.85.07,1.19.22.33.15.58.32.73.51.15.19.28.42.37.69s.14.47.15.61.02.28.02.43v2.13c0,.14,0,.27-.02.39-.01.13-.06.33-.15.59s-.22.49-.37.67-.4.35-.73.5c-.34.14-.73.22-1.19.22s-.85-.07-1.18-.22c-.33-.14-.58-.31-.73-.5s-.28-.41-.37-.67c-.09-.26-.14-.46-.15-.59-.02-.12-.02-.26-.02-.39v-2.13c0-.15,0-.3.02-.43.01-.13.06-.34.15-.61.09-.27.21-.51.37-.69.15-.19.4-.36.73-.51.33-.15.72-.22,1.18-.22Zm1.22,6.18c.46-.26.78-.86.78-1.71v-1.98c0-.85-.32-1.45-.78-1.71-.46-.26-.82-.33-1.21-.33s-.76.07-1.22.33c-.46.26-.78.86-.78,1.71v1.98c0,.85.33,1.45.78,1.71.23.13.44.21.63.26.6.12,1.12.11,1.8-.26Z"/>
        <path class="cls-1" d="m91.76,55.56c-.47,0-.88-.07-1.21-.21-.34-.14-.6-.32-.77-.56-.34-.47-.47-.95-.47-1.55v-4.5c0-.06.03-.1.1-.1h.27c.06,0,.1.03.1.1v4.38c0,.68.25,1.22.53,1.49.14.13.31.24.52.32.4.16.66.19.95.19s.55-.03.95-.19c.2-.08.37-.19.51-.32.28-.27.53-.8.53-1.49v-4.38c0-.06.03-.1.1-.1h.26c.06,0,.1.03.1.1v4.5c0,.6-.13,1.08-.47,1.55-.18.24-.43.43-.77.56-.34.14-.74.21-1.22.21Z"/>
        <path class="cls-1" d="m99.89,48.65c.06,0,.1.03.1.1v.25c0,.06-.03.1-.1.1h-1.83v6.33c0,.06-.03.1-.1.1h-.27c-.06,0-.1-.03-.1-.1v-6.33h-1.83c-.06,0-.1-.03-.1-.1v-.25c0-.06.04-.1.1-.1h4.12Z"/>
        <path class="cls-1" d="m101.9,55.43c0,.06-.03.1-.1.1h-.27c-.06,0-.1-.03-.1-.1v-6.68c0-.06.03-.1.1-.1h.27c.06,0,.1.03.1.1v6.68Z"/>
        <path class="cls-1" d="m103.78,55.52c-.06,0-.1-.03-.1-.1v-6.68c0-.06.03-.1.1-.1h.27c.06,0,.1.03.1.1v6.33h3.24c.06,0,.1.03.1.1v.26c0,.06-.04.1-.1.1h-3.6Z"/>
        <path class="cls-1" d="m109.61,55.43c0,.06-.03.1-.1.1h-.27c-.06,0-.1-.03-.1-.1v-6.68c0-.06.03-.1.1-.1h.27c.06,0,.1.03.1.1v6.68Z"/>
        <path class="cls-1" d="m111.49,55.52c-.06,0-.1-.03-.1-.1v-6.68c0-.06.03-.1.1-.1h1.81c.44,0,.83.07,1.16.2.33.13.56.3.71.49.3.38.48.8.5,1.08l.02.19v2.95s0,.12-.02.21c-.01.09-.06.25-.14.47-.09.23-.21.43-.36.6-.15.17-.39.33-.71.47-.33.14-.72.21-1.16.21h-1.81Zm.36-6.43v5.98h1.45c.29,0,.54-.03.93-.19.19-.08.36-.19.5-.32.28-.27.51-.79.51-1.48v-2.01c0-.68-.22-1.2-.51-1.48-.14-.13-.31-.24-.5-.32-.39-.16-.63-.18-.93-.18h-1.45Z"/>
        <path class="cls-1" d="m122.12,55.44c0,.06-.03.09-.08.09h-.3s-.07-.03-.1-.07l-.52-1.55h-3.28l-.54,1.55s-.05.07-.1.07h-.3s-.07-.03-.08-.09l2.27-6.69c.02-.06.06-.1.13-.1h.5c.07,0,.11.03.13.1l2.27,6.69Zm-4.15-1.99h2.99l-1.49-4.41-1.5,4.41Z"/>
        <path class="cls-1" d="m123.61,55.52c-.06,0-.1-.03-.1-.1v-6.68c0-.06.03-.1.1-.1h1.81c.44,0,.83.07,1.16.2.33.13.56.3.71.49.3.38.48.8.5,1.08l.02.19v2.95s0,.12-.02.21c-.01.09-.06.25-.14.47-.09.23-.21.43-.36.6-.15.17-.39.33-.71.47-.33.14-.72.21-1.16.21h-1.81Zm.36-6.43v5.98h1.45c.29,0,.54-.03.93-.19.19-.08.36-.19.5-.32.28-.27.51-.79.51-1.48v-2.01c0-.68-.22-1.2-.51-1.48-.14-.13-.31-.24-.5-.32-.39-.16-.63-.18-.93-.18h-1.45Z"/>
        <path class="cls-1" d="m129.95,55.07h3.24c.06,0,.1.03.1.1v.26c0,.06-.03.1-.1.1h-3.6c-.06,0-.1-.03-.1-.1v-6.68c0-.06.03-.1.1-.1h3.6c.06,0,.1.03.1.1v.25c0,.06-.03.1-.1.1h-3.24v2.86h2.66c.06,0,.1.03.1.1v.25c0,.06-.03.1-.1.1h-2.66v2.68Z"/>
        <path class="cls-1" d="m137.15,55.12c.7,0,1.2-.11,1.47-.26.13-.07.23-.16.31-.29.15-.24.17-.42.17-.69,0-.55-.34-.97-.83-1.21-.5-.23-1.12-.42-1.72-.64-.6-.21-1.12-.46-1.42-.93-.15-.23-.23-.51-.23-.83,0-.58.2-1.01.6-1.27.4-.26.93-.39,1.59-.39s1.14.06,1.49.18c.04.02.06.05.07.1l-.07.24s-.04.06-.11.06c-.29-.1-.69-.14-1.2-.14-.64,0-1.13.08-1.44.26-.32.18-.48.5-.48.96,0,.54.34.92.83,1.16.5.23,1.12.41,1.72.62.6.22,1.12.47,1.42.96.15.24.23.53.23.86s-.02.53-.21.87c-.1.18-.23.31-.39.42-.34.22-.98.41-1.85.41-.71,0-1.36-.12-1.95-.34-.04-.02-.06-.05-.06-.1l.1-.26s.06-.06.12-.06c.54.21,1.15.31,1.83.31Z"/>
        <path class="cls-1" d="m93.47,61.56h.47c.06,0,.1.03.1.1v.23c0,.06-.03.1-.1.1h-.47v1.31c0,.32-.02.55-.16.91-.07.18-.18.33-.31.44-.26.23-.76.44-1.43.44h-.2c-.75,0-1.31-.22-1.58-.47-.14-.13-.25-.29-.33-.47-.08-.19-.13-.35-.14-.47-.02-.13-.02-.27-.02-.43,0-.26.02-.47.15-.85.12-.37.45-.63.93-.66-.38-.1-.65-.46-.75-.9-.1-.44-.12-.66-.12-.86,0-.58.18-1.03.53-1.36.35-.34.83-.5,1.42-.5.52,0,.94.03,1.29.08.04.02.06.05.06.1l-.05.28s-.04.06-.11.06c-.39-.05-.73-.07-1.03-.07-1.1,0-1.66.49-1.66,1.47,0,1.03.6,1.54,1.8,1.54h1.23v-.55c0-.06.03-.1.1-.1h.26c.06,0,.1.03.1.1v.55Zm-.46.43h-1.5c-.16,0-.3,0-.41.01-.11,0-.26.03-.44.07s-.33.1-.45.18c-.23.16-.45.51-.45.97,0,.95.58,1.43,1.73,1.43.4,0,.67-.04,1-.21.34-.16.52-.58.52-1.19v-1.26Z"/>
        <path class="cls-1" d="m100.73,63.63s-.09-.03-.12-.08l-2.17-4.39v5.77c0,.06-.03.1-.1.1h-.27c-.06,0-.1-.03-.1-.1v-6.68c0-.06.03-.1.1-.1h.3s.07.03.12.09l2.46,4.98,2.46-4.98c.04-.06.08-.09.12-.09h.3c.06,0,.1.03.1.1v6.68c0,.06-.03.1-.1.1h-.27c-.06,0-.1-.03-.1-.1v-5.77l-2.17,4.39c-.03.06-.07.08-.12.08h-.44Z"/>
        <path class="cls-1" d="m108.04,58.1c.46,0,.85.07,1.19.22.33.15.58.32.73.51.15.19.28.42.37.69s.14.47.15.61.02.28.02.43v2.13c0,.14,0,.27-.02.39-.01.13-.06.33-.15.59s-.22.49-.37.67-.4.35-.73.5c-.34.14-.73.22-1.19.22s-.85-.07-1.18-.22c-.33-.14-.58-.31-.73-.5s-.28-.41-.37-.67c-.09-.26-.14-.46-.15-.59-.02-.12-.02-.26-.02-.39v-2.13c0-.15,0-.3.02-.43.01-.13.06-.34.15-.61.09-.27.21-.51.37-.69.15-.19.4-.36.73-.51.33-.15.72-.22,1.18-.22Zm1.22,6.18c.46-.26.78-.86.78-1.71v-1.98c0-.85-.32-1.45-.78-1.71-.46-.26-.82-.33-1.21-.33s-.76.07-1.22.33c-.46.26-.78.86-.78,1.71v1.98c0,.85.33,1.45.78,1.71.23.13.44.21.63.26.6.12,1.12.11,1.8-.26Zm-1.01-6.73c-.05.06-.1.1-.15.1h-.14c-.07,0-.11-.03-.11-.1l.37-.85c.02-.07.06-.11.12-.11h.31c.07,0,.11.04.11.11l-.51.85Z"/>
        <path class="cls-1" d="m113.97,65.02c-.06,0-.11-.03-.13-.1l-2.27-6.69c0-.06.03-.09.08-.09h.3s.07.03.1.07l2.17,6.41,2.17-6.41s.05-.07.1-.07h.3s.07.03.08.09l-2.27,6.69c-.03.06-.07.1-.13.1h-.5Z"/>
        <path class="cls-1" d="m118.72,64.57h3.24c.06,0,.1.03.1.1v.26c0,.06-.03.1-.1.1h-3.6c-.06,0-.1-.03-.1-.1v-6.68c0-.06.03-.1.1-.1h3.6c.06,0,.1.03.1.1v.25c0,.06-.03.1-.1.1h-3.24v2.86h2.66c.06,0,.1.03.1.1v.25c0,.06-.03.1-.1.1h-2.66v2.68Z"/>
        <path class="cls-1" d="m124.3,64.92c0,.06-.03.1-.1.1h-.27c-.06,0-.1-.03-.1-.1v-6.68c0-.06.03-.1.1-.1h.27c.06,0,.1.03.1.1v6.68Z"/>
        <path class="cls-1" d="m128.17,64.61c.7,0,1.2-.11,1.47-.26.13-.07.23-.16.31-.29.15-.24.17-.42.17-.69,0-.55-.34-.97-.83-1.21-.5-.23-1.12-.42-1.72-.64-.6-.21-1.12-.46-1.42-.93-.15-.23-.23-.51-.23-.83,0-.58.2-1.01.6-1.27.4-.26.93-.39,1.59-.39s1.14.06,1.49.18c.04.02.06.05.07.1l-.07.24s-.04.06-.11.06c-.29-.1-.69-.14-1.2-.14-.64,0-1.13.08-1.44.26-.32.18-.48.5-.48.96,0,.54.34.92.83,1.16.5.23,1.12.41,1.72.62.6.22,1.12.47,1.42.96.15.24.23.53.23.86s-.02.53-.21.87c-.1.18-.23.31-.39.42-.34.22-.98.41-1.85.41-.71,0-1.36-.12-1.95-.34-.04-.02-.06-.05-.06-.1l.1-.26s.06-.06.12-.06c.54.21,1.15.31,1.83.31Z"/>
      </g>
    </g>
  </g>
</svg>