<?xml version="1.0" encoding="UTF-8"?>
<svg xmlns="http://www.w3.org/2000/svg" viewBox="0 0 30.36 23.41">
  <defs>
    <style>
      .cls-1 {
        mix-blend-mode: multiply;
      }

      .cls-2 {
        isolation: isolate;
      }

      .cls-3 {
        fill: #201f1d;
        stroke-width: 0px;
      }
    </style>
  </defs>
  <g class="cls-2">
    <g id="Camada_2" data-name="Camada 2">
      <g id="Header">
        <g class="cls-1">
          <g>
            <path class="cls-3" d="m15.3,10.32l-1.06.51c-.12,0-.19-.05-.21-.14l-.24-.93c0-.11.05-.19.15-.22l1.61-.79h1.11s.08.01.11.04c.04.03.05.07.05.13v5.25c0,.11-.06.16-.17.16h-1.19s-.08-.01-.11-.04c-.03-.03-.05-.07-.05-.12v-3.84Z"/>
            <path class="cls-3" d="m17.62,14.15v-.92c0-.27.05-.53.16-.77s.23-.44.39-.6.33-.31.51-.46c.18-.15.35-.27.51-.37.16-.1.29-.2.39-.3.1-.1.15-.2.15-.3,0-.11-.05-.2-.16-.28-.11-.08-.24-.11-.42-.11-.34,0-.67.07-.99.19-.02,0-.03,0-.05,0-.04,0-.07-.03-.1-.08,0-.02-.13-.31-.38-.88-.02-.05-.03-.09-.03-.11,0-.05.03-.08.08-.12.28-.16.54-.26.77-.31.23-.05.53-.08.9-.08.57,0,1.03.15,1.37.45.35.3.52.72.52,1.24,0,.25-.05.48-.15.68s-.23.38-.38.51c-.15.13-.31.26-.49.39-.17.13-.34.24-.49.33-.15.09-.28.21-.38.33-.1.13-.15.26-.15.4h1.86s.08.02.11.05c.03.03.05.07.05.11v.97c0,.11-.05.17-.16.17h-3.3s-.08-.01-.11-.04c-.04-.03-.05-.07-.05-.12Z"/>
            <path class="cls-3" d="m22.2,14.16l1.6-4.11h-1.95s-.08-.02-.11-.05-.05-.07-.05-.11v-.97c0-.11.05-.17.16-.17h3.3s.08.01.11.04c.04.03.05.07.05.13v1.14l-1.6,4.11c-.04.11-.1.16-.19.16h-1.18s-.08-.01-.11-.04c-.03-.03-.05-.07-.05-.12Z"/>
            <path class="cls-3" d="m28.57,14.32h-1.1c-.08,0-.13-.04-.16-.12l-1.63-5.29s.02-.08.05-.11c.03-.03.07-.05.11-.05h.67c.09,0,.15.05.18.16l1.34,4.39,1.34-4.39c.03-.11.09-.16.18-.16h.67s.08.01.11.04c.03.03.05.07.05.12l-1.63,5.29c-.03.08-.08.12-.16.12Z"/>
          </g>
          <g>
            <polygon class="cls-3" points="1.44 10.28 7.7 10.28 7.97 9.96 1.17 9.96 1.44 10.28"/>
            <polygon class="cls-3" points="1.97 10.89 7.17 10.89 7.44 10.58 1.7 10.58 1.97 10.89"/>
            <path class="cls-3" d="m2.62,11.65v1.64h1.2v.45h-1.2v1.64h1.2v7.3c0,.41.33.75.75.75s.75-.33.75-.75v-7.3h1.2v-.64h-1.2v-.45h1.2v-1.55h-1.2v-.45h1.2v-.64l.39-.46H2.23l.39.46Z"/>
            <polygon class="cls-3" points=".92 9.66 8.23 9.66 8.5 9.35 .64 9.35 .92 9.66"/>
            <path class="cls-3" d="m7.95,4.79V.75c0-.41-.33-.75-.75-.75s-.75.33-.75.75v4.05h-1.14V.75c0-.41-.33-.75-.75-.75s-.75.33-.75.75v4.05h-1.14V.75c0-.41-.33-.75-.75-.75s-.75.33-.75.75v4.05H0v3.8l.39.45h8.37l.39-.45v-3.8h-1.19Z"/>
          </g>
        </g>
      </g>
    </g>
  </g>
</svg>