<?xml version="1.0" encoding="UTF-8"?>
<svg xmlns="http://www.w3.org/2000/svg" viewBox="0 0 32.16 23.41">
  <defs>
    <style>
      .cls-1 {
        mix-blend-mode: multiply;
      }

      .cls-2 {
        isolation: isolate;
      }

      .cls-3 {
        fill: #201f1d;
        stroke-width: 0px;
      }
    </style>
  </defs>
  <g class="cls-2">
    <g id="Camada_2" data-name="Camada 2">
      <g id="Header">
        <g class="cls-1">
          <g>
            <path class="cls-3" d="m14.06,14.15v-.92c0-.27.05-.53.16-.77.1-.24.23-.44.39-.6.16-.16.33-.31.51-.46.18-.15.35-.27.51-.37.16-.1.29-.2.39-.3.1-.1.15-.2.15-.3,0-.11-.05-.2-.16-.28-.11-.08-.24-.11-.42-.11-.34,0-.67.07-.99.19-.02,0-.03,0-.05,0-.04,0-.07-.03-.1-.08,0-.02-.13-.31-.38-.88-.02-.05-.03-.09-.03-.11,0-.05.03-.08.08-.12.28-.16.54-.26.77-.31.23-.05.53-.08.9-.08.57,0,1.03.15,1.37.45.35.3.52.72.52,1.24,0,.25-.05.48-.15.68-.1.21-.23.38-.38.51-.15.13-.31.26-.49.39s-.34.24-.49.33c-.15.09-.28.21-.38.33-.1.13-.15.26-.15.4h1.86s.08.02.11.05c.03.03.05.07.05.11v.97c0,.11-.05.17-.16.17h-3.3s-.08-.01-.11-.04-.05-.07-.05-.12Z"/>
            <path class="cls-3" d="m18.41,14.15v-.92c0-.27.05-.53.16-.77.1-.24.23-.44.39-.6.16-.16.33-.31.51-.46.18-.15.35-.27.51-.37.16-.1.29-.2.39-.3.1-.1.15-.2.15-.3,0-.11-.05-.2-.16-.28-.11-.08-.24-.11-.42-.11-.34,0-.67.07-.99.19-.02,0-.03,0-.05,0-.04,0-.07-.03-.1-.08,0-.02-.13-.31-.38-.88-.02-.05-.03-.09-.03-.11,0-.05.03-.08.08-.12.28-.16.54-.26.77-.31.23-.05.53-.08.9-.08.57,0,1.03.15,1.37.45.35.3.52.72.52,1.24,0,.25-.05.48-.15.68-.1.21-.23.38-.38.51-.15.13-.31.26-.49.39s-.34.24-.49.33c-.15.09-.28.21-.38.33-.1.13-.15.26-.15.4h1.86s.08.02.11.05c.03.03.05.07.05.11v.97c0,.11-.05.17-.16.17h-3.3s-.08-.01-.11-.04-.05-.07-.05-.12Z"/>
            <path class="cls-3" d="m24.81,8.67c.38,0,.72.06,1,.19.28.13.49.28.62.47.13.19.23.37.3.55.07.18.11.34.12.47v.19s0,1.98,0,1.98c0,.02,0,.06,0,.11,0,.05-.02.13-.04.26-.03.13-.06.25-.11.37s-.12.25-.22.39c-.1.15-.22.27-.36.37-.14.1-.32.19-.55.26-.23.07-.48.11-.76.11-.38,0-.72-.06-1-.19-.28-.13-.49-.28-.62-.47-.13-.19-.23-.37-.3-.55-.07-.18-.11-.34-.12-.47v-.19s0-1.98,0-1.98c0-.02,0-.06,0-.11,0-.05.02-.14.04-.26s.06-.25.11-.37c.05-.12.12-.25.22-.39.1-.15.22-.27.36-.37.14-.1.32-.19.55-.26.23-.07.48-.11.76-.11Zm0,4.27c.34,0,.51-.2.51-.61v-1.59c0-.41-.17-.61-.51-.61-.34,0-.51.2-.51.61v1.59c0,.41.17.61.51.61Z"/>
            <path class="cls-3" d="m30.37,14.32h-1.1c-.08,0-.13-.04-.16-.12l-1.63-5.29s.02-.08.05-.11c.03-.03.07-.05.11-.05h.67c.09,0,.15.05.18.16l1.34,4.39,1.34-4.39c.03-.11.09-.16.18-.16h.67s.08.01.11.04c.03.03.05.07.05.12l-1.63,5.29c-.03.08-.08.12-.16.12Z"/>
          </g>
          <g>
            <polygon class="cls-3" points="1.44 10.28 7.7 10.28 7.97 9.96 1.17 9.96 1.44 10.28"/>
            <polygon class="cls-3" points="1.97 10.89 7.17 10.89 7.44 10.58 1.7 10.58 1.97 10.89"/>
            <path class="cls-3" d="m2.62,11.65v1.64h1.2v.45h-1.2v1.64h1.2v7.3c0,.41.33.75.75.75s.75-.33.75-.75v-7.3h1.2v-.64h-1.2v-.45h1.2v-1.55h-1.2v-.45h1.2v-.64l.39-.46H2.23l.39.46Z"/>
            <polygon class="cls-3" points=".92 9.66 8.23 9.66 8.5 9.35 .64 9.35 .92 9.66"/>
            <path class="cls-3" d="m7.95,4.79V.75c0-.41-.33-.75-.75-.75s-.75.33-.75.75v4.05h-1.14V.75c0-.41-.33-.75-.75-.75s-.75.33-.75.75v4.05h-1.14V.75c0-.41-.33-.75-.75-.75s-.75.33-.75.75v4.05H0v3.8l.39.45h8.37l.39-.45v-3.8h-1.19Z"/>
          </g>
        </g>
      </g>
    </g>
  </g>
</svg>