<?xml version="1.0" encoding="UTF-8"?>
<svg id="Camada_2" data-name="Camada 2" xmlns="http://www.w3.org/2000/svg" viewBox="0 0 12.83 17.33">
  <defs>
    <style>
      .cls-1 {
        fill: #fff;
        stroke-width: 0px;
      }
    </style>
  </defs>
  <g id="Camada_1-2" data-name="Camada 1">
    <path class="cls-1" d="m9.58,0H3.25L0,8.12h5.74v2.55c-.79.28-1.35,1.03-1.35,1.91v1.35c0,1.12-.91,2.03-2.03,2.03v1.35h8.12v-1.35c-1.12,0-2.03-.91-2.03-2.03v-1.35c0-.88-.57-1.63-1.35-1.91v-2.55h2.71v3.79h1.35v-3.79h1.68L9.58,0Zm-1.81,15.98h-2.71c.43-.57.68-1.27.68-2.03v-1.35c0-.37.3-.68.68-.68s.68.3.68.68v1.35c0,.76.25,1.46.68,2.03ZM2,6.77L4.17,1.35h4.5l2.17,5.42H2Z"/>
  </g>
</svg>