<?xml version="1.0" encoding="UTF-8"?>
<svg id="Camada_2" data-name="Camada 2" xmlns="http://www.w3.org/2000/svg" viewBox="0 0 18.92 18.89">
  <defs>
    <style>
      .cls-1 {
        fill: #fff;
        stroke-width: 0px;
      }
    </style>
  </defs>
  <g id="Camada_1-2" data-name="Camada 1">
    <path class="cls-1" d="m6.35,14.46c-.41,0-.74.33-.74.74s.33.74.74.74.74-.33.74-.74-.33-.74-.74-.74Zm10.34,0h-.74V4.43c0-2.44-1.99-4.43-4.43-4.43s-4.43,1.99-4.43,4.43v1.33h-1.18v-1.33h-1.48v1.33h-.74c-2.04,0-3.69,1.66-3.69,3.69v7.23c0,1.22.99,2.21,2.22,2.21h4.14c2.04,0,3.69-1.66,3.69-3.69,0-1.2-.58-2.28-1.48-2.95v-7.82c0-1.63,1.33-2.95,2.96-2.95s2.96,1.32,2.96,2.95v10.04h-.74c-1.22,0-2.22.99-2.22,2.21v2.21h7.39v-2.21c0-1.22-.99-2.21-2.22-2.21ZM1.48,9.44c0-.96.62-1.78,1.48-2.09v2.68h-1.48v-.59Zm1.92,7.97h-1.18c-.41,0-.74-.33-.74-.74v-5.17h2.96v-4.28h2.66v4.35c-.24-.05-.49-.07-.74-.07-2.04,0-3.69,1.66-3.69,3.69,0,.83.28,1.6.74,2.21Zm2.95,0c-1.22,0-2.22-.99-2.22-2.21s.99-2.21,2.22-2.21,2.22.99,2.22,2.21-.99,2.21-2.22,2.21Zm11.08,0h-4.43v-.74c0-.41.33-.74.74-.74h2.96c.41,0,.74.33.74.74v.74Z"/>
  </g>
</svg>