<?xml version="1.0" encoding="UTF-8"?>
<svg id="Camada_2" data-name="Camada 2" xmlns="http://www.w3.org/2000/svg" viewBox="0 0 237.83 73.55">
  <defs>
    <style>
      .cls-1 {
        fill: #706f6f;
      }

      .cls-1, .cls-2, .cls-3, .cls-4 {
        stroke-width: 0px;
      }

      .cls-2 {
        fill: #1d1d1b;
      }

      .cls-3 {
        fill: #fff;
      }

      .cls-4 {
        fill: #e3e3e2;
      }
    </style>
  </defs>
  <g id="Header">
    <g>
      <g>
        <circle class="cls-1" cx="5.24" cy="55.28" r="4.4"/>
        <path class="cls-2" d="m5.24,60.52c-2.89,0-5.24-2.35-5.24-5.24s2.35-5.24,5.24-5.24,5.24,2.35,5.24,5.24-2.35,5.24-5.24,5.24Zm0-8.8c-1.96,0-3.56,1.6-3.56,3.56s1.6,3.56,3.56,3.56,3.56-1.6,3.56-3.56-1.6-3.56-3.56-3.56Z"/>
        <g>
          <path class="cls-3" d="m37.51.84h-21.4C10.27.84,5.54,5.57,5.54,11.41v50.73c0,5.84,4.73,10.57,10.57,10.57h30.53c5.84,0,10.57-4.73,10.57-10.57V20.54L37.51.84Z"/>
          <path class="cls-2" d="m46.64,73.55h-30.53c-6.29,0-11.41-5.12-11.41-11.41V11.41C4.7,5.12,9.82,0,16.11,0h21.4c.22,0,.44.09.59.25l19.7,19.7c.16.16.25.37.25.59v41.6c0,6.29-5.12,11.41-11.41,11.41ZM16.11,1.68c-5.37,0-9.73,4.37-9.73,9.73v50.73c0,5.37,4.37,9.73,9.73,9.73h30.53c5.37,0,9.73-4.37,9.73-9.73V20.89L37.16,1.68h-21.05Z"/>
        </g>
        <g>
          <path class="cls-4" d="m37.51.84l19.7,19.7h-15.5c-2.32,0-4.2-1.88-4.2-4.2V.84Z"/>
          <path class="cls-2" d="m57.22,21.38s0,0,0,0h-15.5c-2.78,0-5.04-2.26-5.04-5.04V.84c0-.34.2-.65.52-.78.31-.13.67-.06.92.18l19.66,19.66c.18.15.29.38.29.63,0,.46-.38.84-.84.84ZM38.35,2.87v13.47c0,1.85,1.51,3.36,3.36,3.36h13.47L38.35,2.87Z"/>
        </g>
        <path class="cls-1" d="m5.64,29.92c-2.61,0-4.73,2.12-4.73,4.73v19.8h.09c.42-2.18,2.34-3.83,4.64-3.83h47.63v-20.71H5.64Z"/>
        <path class="cls-2" d="m.99,55.3h-.09c-.46,0-.84-.38-.84-.84v-19.8c0-3.07,2.5-5.57,5.57-5.57h47.63c.46,0,.84.38.84.84v20.71c0,.46-.38.84-.84.84H5.64c-1.86,0-3.47,1.32-3.82,3.15-.08.4-.42.68-.82.68Zm4.64-24.53c-2.14,0-3.89,1.74-3.89,3.89v16.72c1.01-.99,2.39-1.59,3.89-1.59h46.79v-19.03H5.64Z"/>
        <g>
          <path class="cls-3" d="m13.57,35.19c0-.35.29-.64.62-.64h3.55c2.51,0,4.17,1.34,4.17,3.53v.03c0,2.4-2,3.64-4.37,3.64h-2.7v3.37c0,.35-.29.64-.64.64s-.62-.29-.62-.64v-9.94Zm4.01,5.42c1.84,0,3.05-.99,3.05-2.45v-.03c0-1.59-1.19-2.42-2.99-2.42h-2.81v4.9h2.75Z"/>
          <path class="cls-3" d="m24.2,35.19c0-.35.29-.64.62-.64h3.24c3.5,0,5.92,2.4,5.92,5.53v.03c0,3.13-2.42,5.57-5.92,5.57h-3.24c-.33,0-.62-.29-.62-.64v-9.86Zm3.86,9.33c2.81,0,4.61-1.91,4.61-4.37v-.03c0-2.46-1.8-4.4-4.61-4.4h-2.61v8.81h2.61Z"/>
          <path class="cls-3" d="m36.63,35.19c0-.35.29-.64.62-.64h6.89c.32,0,.57.25.57.57s-.25.59-.57.59h-6.25v3.98h5.53c.32,0,.57.25.57.57s-.25.57-.57.57h-5.53v4.29c0,.35-.29.64-.64.64s-.62-.29-.62-.64v-9.94Z"/>
        </g>
      </g>
      <g>
        <path class="cls-1" d="m83.12,36.1c0,.22-.02.45-.06.71s-.12.58-.23.95c-.12.37-.32.71-.6,1.02-.28.31-.63.54-1.05.69.54.14,1,.38,1.36.72s.61.72.74,1.16.21.77.25,1c.03.23.05.46.05.69,0,.2,0,.37-.01.5,0,.14-.05.36-.12.67-.07.31-.18.59-.32.82-.14.24-.35.5-.63.79-.28.29-.62.53-1.01.71-.39.19-.9.35-1.52.48-.62.13-1.32.2-2.09.2h-4.97c-.31,0-.47-.15-.47-.44v-14.59c0-.3.16-.44.47-.44h4.52c.72,0,1.41.08,2.06.23.66.16,1.26.4,1.82.74.56.34,1,.79,1.33,1.37.33.58.49,1.25.49,2.02Zm-5.94,1.82c1.14,0,1.72-.45,1.72-1.36,0-.36-.12-.65-.35-.86s-.47-.34-.69-.39-.45-.07-.67-.07h-.52v2.68h.52Zm.44,5.72c1.14,0,1.72-.44,1.72-1.33,0-.36-.12-.65-.36-.86-.24-.21-.47-.34-.69-.39-.22-.05-.44-.07-.67-.07h-.96v2.65h.96Z"/>
        <path class="cls-1" d="m94.1,46.77l-.47-1.57h-4.41l-.47,1.57c-.08.3-.23.44-.44.44h-3.31c-.11,0-.21-.04-.31-.12s-.14-.19-.14-.32l4.41-14.56c.08-.31.23-.47.44-.47h4.08c.22,0,.36.16.44.47l4.38,14.56c0,.13-.05.23-.14.32-.09.08-.19.13-.31.13h-3.32c-.22,0-.36-.15-.44-.44Zm-2.65-9.12l-1.1,3.7h2.16l-1.06-3.7Z"/>
        <path class="cls-1" d="m104.12,32.2v14.56c0,.13-.05.23-.14.32s-.19.13-.31.13h-3.32c-.31,0-.47-.15-.47-.44v-14.56c0-.14.05-.26.15-.34s.21-.13.32-.13h3.32c.11,0,.21.05.31.14s.14.2.14.33Z"/>
        <path class="cls-1" d="m111.96,42.94l-2.14,3.85c-.13.3-.28.44-.47.44h-3.3c-.31,0-.47-.15-.47-.44l4.26-7.27-4.26-7.29c0-.13.05-.24.14-.33.09-.09.19-.14.31-.14h3.23c.2,0,.39.16.56.47l2.14,3.68,2.14-3.68c.18-.31.37-.47.56-.47h3.22c.11,0,.21.04.31.13.09.09.14.2.14.34l-4.25,7.29,4.25,7.27c0,.3-.16.44-.47.44h-3.29c-.18,0-.34-.15-.47-.44l-2.14-3.85Z"/>
        <path class="cls-1" d="m128.85,46.77l-.47-1.57h-4.41l-.47,1.57c-.08.3-.23.44-.44.44h-3.31c-.11,0-.21-.04-.31-.12s-.14-.19-.14-.32l4.41-14.56c.08-.31.23-.47.44-.47h4.08c.22,0,.36.16.44.47l4.38,14.56c0,.13-.05.23-.14.32-.09.08-.19.13-.31.13h-3.32c-.22,0-.36-.15-.44-.44Zm-2.65-9.12l-1.1,3.7h2.16l-1.06-3.7Z"/>
        <path class="cls-1" d="m141.79,46.77l-1.39-2.84c-.11.02-.3.02-.56.02h-.96v2.82c0,.13-.05.23-.14.32s-.19.13-.31.13h-3.32c-.31,0-.47-.15-.47-.44v-14.56c0-.14.05-.26.15-.34s.21-.13.32-.13h4.73c.8,0,1.53.09,2.2.28.66.19,1.2.43,1.6.74s.75.64,1.06,1.01.53.74.67,1.12c.14.38.25.72.33,1.02.08.3.12.55.12.74l.02.28v1.83c0,.18-.02.42-.06.71s-.21.77-.52,1.45c-.3.68-.72,1.25-1.26,1.7l2.04,4.15c0,.3-.16.44-.47.44h-3.3c-.18,0-.34-.15-.47-.44Zm-1.96-11h-.96v4.15h.96c1.14,0,1.72-.57,1.72-1.7v-.76c0-1.13-.57-1.69-1.72-1.69Z"/>
        <path class="cls-1" d="m161.1,43.86h-2.16c-.2,0-.39-.14-.56-.43l-1.52-3.77v7.1c0,.13-.05.23-.14.32s-.19.13-.31.13h-3.32c-.31,0-.47-.15-.47-.44v-14.56c0-.14.05-.26.15-.34s.21-.13.32-.13h3.35c.2,0,.39.16.56.47l3.02,7.46,3.02-7.46c.18-.31.37-.47.56-.47h3.33c.11,0,.22.04.32.12s.15.2.15.35v14.56c0,.3-.16.44-.47.44h-3.31c-.11,0-.21-.04-.31-.12-.09-.08-.14-.19-.14-.32v-7.1l-1.52,3.77c-.18.29-.36.43-.56.43Z"/>
        <path class="cls-1" d="m178.55,46.77l-.47-1.57h-4.41l-.47,1.57c-.08.3-.23.44-.44.44h-3.31c-.11,0-.21-.04-.31-.12s-.14-.19-.14-.32l4.41-14.56c.08-.31.23-.47.44-.47h4.08c.22,0,.36.16.44.47l4.38,14.56c0,.13-.05.23-.14.32-.09.08-.19.13-.31.13h-3.32c-.22,0-.36-.15-.44-.44Zm-2.65-9.12l-1.1,3.7h2.16l-1.06-3.7Z"/>
        <path class="cls-1" d="m196.74,32.2v14.56c0,.13-.05.23-.14.32s-.19.13-.31.13h-3.44c-.2,0-.39-.15-.56-.44l-3.71-6.92v6.92c0,.13-.05.23-.14.32s-.19.13-.31.13h-3.32c-.31,0-.47-.15-.47-.44v-14.56c0-.14.05-.26.15-.34s.21-.13.32-.13h3.35c.2,0,.39.16.56.47l3.78,7.07v-7.07c0-.14.05-.26.15-.34s.21-.13.32-.13h3.32c.11,0,.21.05.31.14s.14.2.14.33Z"/>
        <path class="cls-1" d="m205.17,47.4c-.8,0-1.53-.09-2.2-.28-.66-.19-1.2-.43-1.6-.73-.4-.3-.75-.64-1.06-1.02-.3-.38-.53-.75-.67-1.12-.14-.37-.25-.7-.34-1.01-.08-.3-.13-.55-.15-.74v-10.32c0-.3.16-.44.47-.44h3.32c.11,0,.21.04.31.12s.14.19.14.32v9.5c0,1.13.59,1.69,1.77,1.7s1.77-.56,1.77-1.7v-9.5c0-.13.04-.23.13-.32s.19-.13.3-.13h3.32c.31,0,.47.15.47.44v10.04c0,.14-.01.33-.04.56-.02.23-.15.65-.37,1.25-.22.6-.52,1.12-.9,1.57-.38.45-.97.86-1.79,1.24s-1.79.56-2.9.56Z"/>
        <path class="cls-1" d="m221.7,46.77l-.47-1.57h-4.41l-.47,1.57c-.08.3-.23.44-.44.44h-3.31c-.11,0-.21-.04-.31-.12s-.14-.19-.14-.32l4.41-14.56c.08-.31.23-.47.44-.47h4.08c.22,0,.36.16.44.47l4.38,14.56c0,.13-.05.23-.14.32-.09.08-.19.13-.31.13h-3.32c-.22,0-.36-.15-.44-.44Zm-2.65-9.12l-1.1,3.7h2.16l-1.06-3.7Z"/>
        <path class="cls-1" d="m231.97,32.18v11.42h5.41c.13,0,.23.04.32.13s.13.19.13.31v2.7c0,.31-.15.47-.44.47h-9.17c-.11,0-.22-.04-.32-.12s-.15-.2-.15-.35v-14.56c0-.3.16-.44.47-.44h3.31c.11,0,.21.04.31.13.09.08.14.19.14.32Z"/>
      </g>
    </g>
  </g>
</svg>