<?xml version="1.0" encoding="UTF-8"?>
<svg id="Camada_2" data-name="Camada 2" xmlns="http://www.w3.org/2000/svg" viewBox="0 0 18.92 18.89">
  <defs>
    <style>
      .cls-1 {
        fill: #fff;
        stroke-width: 0px;
      }
    </style>
  </defs>
  <g id="Camada_1-2" data-name="Camada 1">
    <path class="cls-1" d="m14.48,16.09h1.48v-5.9h-1.48v5.9Zm.74-10.18c-.41,0-.74.33-.74.74s.33.74.74.74.74-.33.74-.74-.33-.74-.74-.74Zm1.48-5.9H5.17c-1.22,0-2.22.99-2.22,2.21v2.21h1.48v1.48h1.48v2.8h-3.69c-1.22,0-2.22.99-2.22,2.21s.99,2.21,2.22,2.21h.81c.11.54.34,1.05.67,1.48h-1.48C.99,14.61,0,15.6,0,16.82v2.07h18.92V2.21c0-1.22-.99-2.21-2.22-2.21ZM2.96,11.66h-.74c-.41,0-.74-.33-.74-.74s.33-.74.74-.74h.74v1.48Zm1.48-1.48h4.43v2.21c0,1.22-.99,2.21-2.22,2.21s-2.22-.99-2.22-2.21v-2.21Zm2.96-1.48v-2.8h1.48v-1.48h2.66v10.18h-1.92c.46-.62.74-1.38.74-2.21v-3.69h-2.96Zm10.05,8.71H1.48v-.59c0-.41.33-.74.74-.74h10.79V2.95h-5.62v1.48h-1.48v-1.48h-1.48v-.74c0-.41.33-.74.74-.74h11.53c.41,0,.74.33.74.74v15.2Zm-2.22-14.46c-.41,0-.74.33-.74.74s.33.74.74.74.74-.33.74-.74-.33-.74-.74-.74Z"/>
  </g>
</svg>