<?xml version="1.0" encoding="UTF-8"?>
<svg id="Camada_2" data-name="Camada 2" xmlns="http://www.w3.org/2000/svg" viewBox="0 0 17.73 18.89">
  <defs>
    <style>
      .cls-1 {
        fill: #fff;
        stroke-width: 0px;
      }
    </style>
  </defs>
  <g id="Camada_1-2" data-name="Camada 1">
    <path class="cls-1" d="m7.09,2.8C7.88,2.21,8.87,1.48,8.87,0h-1.48c0,.7-.43,1.06-1.18,1.62-.79.59-1.77,1.33-1.77,2.8h1.48c0-.7.43-1.06,1.18-1.62Zm-4.14,3.54c0,.25.01.5.04.74H0v1.48h3.34c.42,1.18,1.16,2.2,2.11,2.97l-.59,2.96c-1.07.15-1.9,1.08-1.9,2.19,0,1.22.99,2.21,2.22,2.21s2.22-.99,2.22-2.21c0-.25-.04-.49-.12-.72l5.65-.02.49,2.95h2.84v-1.48h-1.59l-.97-5.83c1.56-1.22,2.56-3.11,2.56-5.24v-.74H2.96v.74Zm2.22,11.07c-.41,0-.74-.33-.74-.74,0-.33.22-.62.53-.71h.41c.31.09.54.37.54.71,0,.41-.33.74-.74.74Zm1.19-2.93l.43-2.13c.86.4,1.81.63,2.82.63s1.89-.21,2.72-.58l.34,2.06-6.31.02Zm8.36-7.4c-.36,2.5-2.52,4.43-5.12,4.43s-4.76-1.93-5.12-4.43h10.24Zm-4.38-2.66c0-.7.43-1.06,1.18-1.62.79-.59,1.77-1.33,1.77-2.8h-1.48c0,.7-.43,1.06-1.18,1.62-.79.59-1.77,1.33-1.77,2.8h1.48ZM16.26,0c0,.7-.43,1.06-1.18,1.62-.79.59-1.77,1.33-1.77,2.8h1.48c0-.7.43-1.06,1.18-1.62.79-.59,1.77-1.33,1.77-2.8h-1.48Z"/>
  </g>
</svg>