<svg xmlns="http://www.w3.org/2000/svg" viewBox="0 0 20.45 20.45"><defs><style>.cls-1,.cls-2{fill:#fff;}.cls-1{fill-rule:evenodd;}</style></defs><g id="Camada_2" data-name="Camada 2"><g id="Header"><path class="cls-1" d="M8.47,10.31v6.63a.18.18,0,0,0,.18.17h2.46a.18.18,0,0,0,.17-.17V10.2h1.79a.17.17,0,0,0,.17-.16l.17-2a.17.17,0,0,0-.17-.18h-2V6.39a.61.61,0,0,1,.61-.62h1.38a.17.17,0,0,0,.17-.17v-2a.18.18,0,0,0-.17-.17H10.94A2.47,2.47,0,0,0,8.47,5.87v2H7.24A.17.17,0,0,0,7.07,8v2a.18.18,0,0,0,.17.17H8.47Z"/><path class="cls-2" d="M14.26,0H6.19A6.19,6.19,0,0,0,0,6.19v8.07a6.19,6.19,0,0,0,6.19,6.19h8.07a6.19,6.19,0,0,0,6.19-6.19V6.19A6.19,6.19,0,0,0,14.26,0Zm4.46,14.45a4.27,4.27,0,0,1-4.27,4.27H6a4.28,4.28,0,0,1-4.28-4.27V6A4.28,4.28,0,0,1,6,1.72h8.45A4.28,4.28,0,0,1,18.72,6Z"/></g></g></svg>