<?xml version="1.0" encoding="UTF-8"?>
<svg id="Camada_2" data-name="Camada 2" xmlns="http://www.w3.org/2000/svg" viewBox="0 0 45.4 22.53">
  <defs>
    <style>
      .cls-1 {
        fill: #636362;
        stroke-width: 0px;
      }
    </style>
  </defs>
  <g id="Header">
    <g>
      <path class="cls-1" d="m11.36,10.34c-.16,0-.32.03-.46.08v-1.46c0-1.27-1.04-2.31-2.31-2.31h-2.22v-.92h-.92v.92h-2.22c-1.27,0-2.31,1.03-2.31,2.31v1.46c-.34-.12-.56-.07-.92-.08v.92h.46c.25,0,.46.21.46.46v2.77c0,.6.39,1.11.92,1.3v1h.92v-.92h6.28v.92h.92v-1c.54-.19.92-.7.92-1.3v-2.77c0-.25.21-.46.46-.46h.46v-.92h-.46Zm-4.99,4.61h-.92v-2.31c0-.25.21-.46.46-.46s.46.21.46.46v2.31Zm3.6-.46c0,.25-.21.46-.46.46h-2.22v-2.31c0-.76-.62-1.38-1.39-1.38s-1.39.62-1.39,1.38v2.31h-2.22c-.25,0-.46-.21-.46-.46v-4.15h8.13v4.15Zm0-5.07H1.85v-.46c0-.76.62-1.38,1.39-1.38h5.36c.76,0,1.39.62,1.39,1.38v.46Z"/>
      <g>
        <path class="cls-1" d="m24,7.01h-2.22s-.06-.02-.06-.06V2.83s.02-.06.06-.06h.16s.06.02.06.06v3.9h2s.06.02.06.06v.16s-.02.06-.06.06Z"/>
        <path class="cls-1" d="m25.39,2.83v4.12s-.02.06-.06.06h-.16s-.06-.02-.06-.06V2.83s.02-.06.06-.06h.16s.06.02.06.06Z"/>
        <path class="cls-1" d="m29.23,6.96l-2.46-3.68v3.67s-.02.06-.06.06h-.16s-.06-.02-.06-.06V2.83s.02-.06.06-.06h.18s.05.02.07.05l2.46,3.67v-3.66s.02-.06.06-.06h.16s.06.02.06.06v4.12s-.02.06-.06.06h-.18s-.05-.02-.07-.05Z"/>
        <path class="cls-1" d="m33.57,2.83v4.12s-.02.06-.06.06h-.16s-.06-.02-.06-.06v-1.68h-2.36v1.68s-.02.06-.06.06h-.16s-.06-.02-.06-.06V2.83s.02-.06.06-.06h.16s.06.02.06.06v2.17h2.36v-2.17s.02-.06.06-.06h.16s.06.02.06.06Z"/>
        <path class="cls-1" d="m36.31,2.83l1.4,4.13s-.02.05-.05.05h-.19s-.05-.02-.06-.05l-.32-.96h-2.02l-.33.96s-.03.05-.06.05h-.19s-.05-.02-.05-.05l1.4-4.13s.04-.06.08-.06h.31s.07.02.08.06Zm-1.16,2.9h1.84l-.92-2.72-.92,2.72Z"/>
        <path class="cls-1" d="m22.65,10.79v1.04c0,.19.08.33.23.42s.32.13.51.13c.1,0,.24-.02.43-.06s.3-.07.34-.07c.04,0,.08.02.1.06.1.52.15.81.15.87,0,.04-.02.06-.07.09-.29.15-.68.22-1.16.22-.22,0-.42-.03-.6-.08s-.33-.12-.44-.2-.21-.18-.3-.28c-.09-.1-.15-.21-.2-.31-.04-.1-.08-.19-.1-.28-.03-.08-.04-.15-.04-.2v-.08s0-1.5,0-1.5c0-.02,0-.04,0-.08,0-.04.02-.1.05-.2s.06-.19.1-.28.1-.19.19-.3c.09-.11.19-.21.3-.28.11-.08.26-.14.44-.2s.39-.08.6-.08c.48,0,.87.07,1.16.22.04.02.07.05.07.09,0,.06-.05.35-.15.87-.02.04-.05.06-.1.06-.04,0-.15-.03-.34-.07s-.33-.06-.43-.06c-.19,0-.36.04-.51.13s-.23.23-.23.42Z"/>
        <path class="cls-1" d="m26.61,9.13c.22,0,.42.03.6.08.18.05.33.12.44.2s.21.17.29.28c.08.1.14.2.18.31.04.1.07.2.09.28s.04.15.04.21v1.58s0,.09,0,.15c0,.06-.04.18-.1.34-.06.17-.14.31-.24.43-.1.12-.27.24-.49.34-.22.1-.49.15-.79.15-.22,0-.42-.03-.6-.08s-.33-.12-.44-.2c-.11-.08-.21-.18-.29-.28-.08-.1-.14-.21-.18-.31-.04-.1-.07-.19-.09-.28-.02-.08-.04-.15-.04-.2v-1.58s0-.09,0-.15c0-.06.04-.18.1-.34.06-.16.14-.31.25-.43s.27-.24.49-.34c.22-.1.49-.16.79-.16Zm0,3.25c.31,0,.47-.16.47-.47v-1.21c0-.31-.16-.46-.47-.46s-.47.15-.47.46v1.21c0,.31.16.47.47.47Z"/>
        <path class="cls-1" d="m31.48,9.31v.77c0,.06-.02.12-.06.17l-1.47,2.2h1.41s.06.01.09.04.03.05.03.08v.74c0,.08-.04.13-.12.13h-2.51s-.06-.01-.09-.03c-.03-.02-.04-.05-.04-.09v-.76c0-.06.02-.12.05-.17l1.55-2.2h-1.48s-.06-.01-.09-.04c-.02-.03-.03-.05-.03-.08v-.74c0-.08.04-.13.12-.13h2.51s.06.01.09.03c.03.02.04.05.04.09Z"/>
        <path class="cls-1" d="m33.25,9.31v3.99s-.01.06-.04.09c-.03.02-.05.03-.08.03h-.91c-.09,0-.13-.04-.13-.12v-3.99s.01-.07.04-.09c.03-.02.06-.03.09-.03h.91s.06.01.08.04c.03.02.04.05.04.09Z"/>
        <path class="cls-1" d="m37.31,9.31v3.99s-.01.06-.04.09c-.03.02-.05.03-.08.03h-.94c-.06,0-.11-.04-.15-.12l-1.02-1.9v1.9s-.01.06-.04.09c-.03.02-.05.03-.08.03h-.91c-.09,0-.13-.04-.13-.12v-3.99s.01-.07.04-.09c.03-.02.06-.03.09-.03h.92c.05,0,.11.04.15.13l1.04,1.94v-1.94s.01-.07.04-.09c.03-.02.06-.03.09-.03h.91s.06.01.08.04c.02.02.04.05.04.09Z"/>
        <path class="cls-1" d="m41.2,9.31v3.99s-.01.06-.04.09c-.02.02-.05.03-.09.03h-.91c-.09,0-.13-.04-.13-.12v-1.23h-.9v1.23s-.01.06-.04.09c-.03.02-.05.03-.08.03h-.91c-.09,0-.13-.04-.13-.12v-3.99s.01-.07.04-.09c.03-.02.06-.03.09-.03h.91s.06.01.08.04.04.05.04.09v1.71h.9v-1.71s.01-.07.04-.09c.03-.02.06-.03.09-.03h.91s.06.01.08.04c.03.02.04.05.04.09Z"/>
        <path class="cls-1" d="m44.25,13.3l-.13-.43h-1.21l-.13.43c-.02.08-.06.12-.12.12h-.91s-.06-.01-.08-.03c-.03-.02-.04-.05-.04-.09l1.21-3.99c.02-.08.06-.13.12-.13h1.12c.06,0,.1.04.12.13l1.2,3.99s-.01.06-.04.09c-.02.02-.05.03-.08.03h-.91c-.06,0-.1-.04-.12-.12Zm-.73-2.5l-.3,1.01h.59l-.29-1.01Z"/>
        <path class="cls-1" d="m23.86,18.34h-1.19v1.38s-.01.06-.04.09c-.03.02-.05.03-.08.03h-.91c-.09,0-.13-.04-.13-.12v-3.99s.01-.07.04-.09c.03-.02.06-.03.09-.03h2.51c.08,0,.12.04.12.13v.78s-.01.06-.03.08c-.02.02-.05.04-.09.04h-1.48v.76h1.19c.08,0,.12.04.12.12v.7s-.01.06-.03.08c-.02.02-.05.04-.09.04Z"/>
        <path class="cls-1" d="m26.78,19.72l-.13-.43h-1.21l-.13.43c-.02.08-.06.12-.12.12h-.91s-.06-.01-.08-.03c-.03-.02-.04-.05-.04-.09l1.21-3.99c.02-.08.06-.13.12-.13h1.12c.06,0,.1.04.12.13l1.2,3.99s-.01.06-.04.09c-.02.02-.05.03-.08.03h-.91c-.06,0-.1-.04-.12-.12Zm.25-5.32l-.5.78c-.05.08-.1.12-.15.12h-.56c-.09,0-.13-.04-.13-.12l.34-.78c.04-.09.09-.13.15-.13h.73s.06.01.08.04c.03.03.04.06.04.09Zm-.98,2.83l-.3,1.01h.59l-.29-1.01Z"/>
        <path class="cls-1" d="m29.38,17.2v1.04c0,.19.08.33.23.42s.32.13.51.13c.1,0,.24-.02.43-.06s.3-.07.34-.07c.04,0,.08.02.1.06.1.52.15.81.15.87,0,.04-.02.06-.07.09-.29.15-.68.22-1.16.22-.22,0-.42-.03-.6-.08s-.33-.12-.44-.2-.21-.18-.3-.28c-.09-.1-.15-.21-.2-.31-.04-.1-.08-.19-.1-.28-.03-.08-.04-.15-.04-.2v-.08s0-1.5,0-1.5c0-.02,0-.04,0-.08,0-.04.02-.1.05-.2s.06-.19.1-.28.1-.19.19-.3c.09-.11.19-.21.3-.28.11-.08.26-.14.44-.2s.39-.08.6-.08c.48,0,.87.07,1.16.22.04.02.07.05.07.09,0,.06-.05.35-.15.87-.02.04-.05.06-.1.06-.04,0-.15-.03-.34-.07s-.33-.06-.43-.06c-.19,0-.36.04-.51.13s-.23.23-.23.42Z"/>
        <path class="cls-1" d="m32.92,15.73v3.99s-.01.06-.04.09c-.03.02-.05.03-.08.03h-.91c-.09,0-.13-.04-.13-.12v-3.99s.01-.07.04-.09c.03-.02.06-.03.09-.03h.91s.06.01.08.04c.03.02.04.05.04.09Z"/>
        <path class="cls-1" d="m34.82,15.72v3.13h1.48s.06.01.09.04c.02.02.03.05.03.09v.74c0,.09-.04.13-.12.13h-2.51s-.06-.01-.09-.03c-.03-.02-.04-.05-.04-.1v-3.99c0-.08.04-.12.13-.12h.91s.06.01.08.03c.02.02.04.05.04.09Z"/>
      </g>
      <rect class="cls-1" x="16.63" width=".6" height="22.53"/>
    </g>
  </g>
</svg>