<?xml version="1.0" encoding="UTF-8"?>
<svg id="Camada_2" data-name="Camada 2" xmlns="http://www.w3.org/2000/svg" viewBox="0 0 218.4 231.03">
  <defs>
    <style>
      .cls-1 {
        fill-rule: evenodd;
      }

      .cls-1, .cls-2 {
        fill: #fff;
        stroke-width: 0px;
      }
    </style>
  </defs>
  <g id="Header">
    <g>
      <g>
        <path class="cls-2" d="m28.42,23.65h10.58c.33,0,.49.16.49.49v2.96c0,.33-.16.49-.49.48h-6.53v3.8h5.26c.33,0,.49.16.49.48v2.96c0,.33-.16.49-.49.49h-5.26v5.95c0,.15-.05.27-.14.36-.09.09-.21.13-.35.13h-3.56c-.13,0-.24-.04-.34-.13-.09-.08-.14-.21-.14-.36v-17.12c0-.15.05-.27.14-.36s.21-.13.34-.13Z"/>
        <path class="cls-2" d="m45.08,23.65h4.31c.29,0,.48.16.58.49l5.19,17.12c0,.15-.05.27-.14.36s-.21.13-.34.13h-3.37c-.29,0-.47-.15-.55-.46l-.6-1.98h-5.89l-.58,1.98c-.07.31-.26.46-.55.46h-3.35c-.13,0-.25-.04-.34-.13-.1-.08-.15-.21-.15-.36l5.21-17.12c.09-.33.29-.49.58-.49Zm2.15,5.74l-1.75,5.87h3.48l-1.73-5.87Z"/>
        <path class="cls-2" d="m68.61,41.76h-10.58c-.13,0-.25-.04-.34-.13-.1-.08-.15-.21-.15-.36v-17.12c0-.15.05-.27.15-.36.1-.09.21-.13.34-.13h3.56c.13,0,.25.04.34.13.1.08.15.21.15.36v13.67h6.53c.33,0,.49.16.48.49v2.96c0,.33-.15.49-.48.49Z"/>
        <path class="cls-2" d="m71.91,41.26v-17.12c0-.15.05-.27.14-.36.09-.09.21-.13.34-.13h10.58c.33,0,.49.16.49.49v2.96c0,.33-.16.49-.49.48h-6.53v3.31h5.26c.33,0,.49.16.49.49v2.83c0,.33-.16.49-.49.49h-5.26v3.1h6.53c.33,0,.49.16.49.49v2.96c0,.33-.16.49-.49.49h-10.58c-.13,0-.24-.04-.34-.13-.09-.09-.14-.21-.14-.36Z"/>
        <path class="cls-2" d="m31.05,56.41c0,1.53.48,2.64,1.43,3.3.94.67,2.06,1.01,3.37,1.01,1.14,0,2.19-.11,3.16-.32.18,0,.32.1.41.29l.25,1.81c0,.18-.1.32-.28.39-1.33.32-2.72.49-4.14.49-2.3,0-4.09-.73-5.07-1.68-.49-.46-.88-1.01-1.18-1.64-.59-1.24-.74-2.13-.74-3.05v-5.7c0-.91.15-1.81.74-3.06.29-.63.69-1.18,1.18-1.64.98-.94,2.77-1.68,5.07-1.68,1.42,0,2.81.17,4.14.49.18.07.28.21.28.41l-.25,1.81c-.07.18-.21.28-.41.28-.97-.21-2.02-.32-3.16-.31-1.31,0-2.43.34-3.37,1-.95.67-1.43,1.78-1.43,3.31v4.49Z"/>
        <path class="cls-2" d="m49.95,44.93c.91,0,1.74.11,2.47.34,1.46.45,2.3,1.01,2.96,1.95s.94,1.63,1.11,2.61c.08.49.13.86.14,1.08.01.24.01.49.01.79v5.19c0,.31-.01.6-.04.87s-.1.69-.2,1.26c-.1.58-.31,1.08-.6,1.53-.29.46-.67.91-1.14,1.38-.46.46-1.09.81-1.91,1.07-.81.27-1.75.39-2.81.39-2.12,0-3.8-.55-4.72-1.46-.46-.46-.83-.91-1.12-1.38-.29-.45-.5-.96-.6-1.53-.11-.58-.18-1-.21-1.26s-.04-.56-.04-.87v-5.19c0-.29,0-.55.01-.79.01-.22.06-.59.14-1.08.08-.49.21-.93.38-1.32.32-.79,1-1.84,1.91-2.46.46-.29,1.05-.56,1.78-.79.73-.22,1.56-.34,2.47-.34Zm2.37,15.12c.9-.49,1.54-1.7,1.54-3.38v-5c0-1.68-.65-2.89-1.54-3.4s-1.6-.66-2.37-.66-1.47.15-2.37.66-1.53,1.71-1.53,3.4v5c0,1.68.63,2.89,1.53,3.38.45.25.86.42,1.24.52,1.15.31,2.22.2,3.51-.52Z"/>
        <path class="cls-2" d="m67.59,59.71c-.21,0-.38-.11-.48-.34l-3.94-7.95v11.27c0,.29-.25.52-.52.52h-1.75c-.27,0-.52-.2-.52-.52v-17.07c0-.29.25-.52.52-.52h1.61c.32,0,.56.17.72.52l5.26,10.49,5.26-10.49c.15-.35.39-.52.72-.52h1.61c.27,0,.51.2.51.52v17.07c0,.29-.24.52-.51.52h-1.75c-.27,0-.52-.2-.52-.52v-11.27l-3.94,7.95c-.11.22-.28.34-.49.34h-1.78Z"/>
        <path class="cls-2" d="m100.14,62.7c0,.29-.24.52-.51.52h-1.81c-.25,0-.45-.17-.58-.52l-.87-2.85h-7.27l-.88,2.85c-.13.35-.32.52-.58.52h-1.81c-.27,0-.52-.2-.52-.52l5.29-17.2c.1-.27.27-.41.51-.39h3.23c.25-.01.42.13.52.39l5.28,17.2Zm-10.21-5.52h5.62l-2.82-9.05-2.79,9.05Z"/>
        <path class="cls-2" d="m34.2,84.68h-5.4c-.13,0-.25-.05-.36-.14-.11-.09-.16-.22-.16-.38v-17.06c0-.15.05-.27.16-.37.11-.1.23-.15.36-.15h5.12c1.09,0,2.07.14,2.93.41.86.28,1.6.82,2.22,1.62.62.8.93,1.85.93,3.13,0,2.21-.75,3.53-2.25,3.97.65.11,1.19.34,1.61.69.42.35.71.75.86,1.21s.25.81.29,1.07.06.5.06.74c0,.35,0,.62-.01.83s-.06.52-.15.93-.21.75-.36,1.02c-.15.27-.38.58-.69.92-.3.34-.68.61-1.12.81s-1.01.37-1.7.52-1.48.22-2.36.22Zm-.6-10.52c.38,0,.7-.01.96-.04.26-.03.58-.1.98-.22.39-.12.69-.35.91-.67.21-.33.32-.74.32-1.23,0-1.52-1.05-2.27-3.16-2.27h-2.06v4.45h2.06Zm.2,7.4c2.36,0,3.54-.78,3.54-2.33,0-1.46-1.18-2.19-3.54-2.19h-2.26v4.52h2.26Z"/>
        <path class="cls-2" d="m43.94,84.16v-17.06c0-.15.05-.27.16-.37.11-.1.23-.15.36-.15h9.92c.15,0,.27.05.36.15s.14.22.14.36v2.09c0,.13-.05.25-.14.36-.09.11-.21.16-.36.16h-7.19v4.42h5.82c.15,0,.27.05.37.16.1.11.15.23.15.36v2.11c0,.13-.05.25-.14.36-.09.11-.22.16-.38.16h-5.82v4.28h7.19c.15,0,.27.05.36.15s.14.22.14.36v2.09c0,.13-.05.25-.14.36-.09.11-.21.16-.36.16h-9.92c-.13,0-.25-.05-.36-.15s-.16-.22-.16-.37Z"/>
        <path class="cls-2" d="m60.24,78.99c1.24.97,2.71,1.46,4.39,1.47,1.26,0,1.89-.34,1.89-1.01,0-.42-.3-.77-.89-1.06-.59-.29-1.31-.55-2.15-.79-.84-.24-1.68-.54-2.53-.9-.84-.37-1.56-.95-2.15-1.75-.59-.8-.89-1.8-.89-2.99,0-1.88.61-3.29,1.82-4.22,1.22-.93,2.79-1.4,4.73-1.4,1.15,0,2.11.09,2.88.26.77.17,1.63.51,2.58,1,.17.07.25.2.25.38,0,.06-.03.17-.08.35l-1.23,2.78c-.09.17-.22.26-.36.27l-.35-.08c-.94-.33-2.08-.49-3.42-.49-1.24,0-1.87.3-1.87.91,0,.35.21.63.63.86.42.23.95.41,1.59.55.64.14,1.33.35,2.08.63.75.29,1.44.62,2.08,1,.64.38,1.17.97,1.6,1.75.43.79.64,1.72.64,2.79,0,.31-.04.64-.11,1s-.24.81-.52,1.38c-.28.56-.65,1.06-1.11,1.51s-1.15.83-2.06,1.17c-.91.33-1.97.52-3.2.55-.11,0-.26,0-.44-.01-.18,0-.55-.05-1.09-.13-.55-.07-1.07-.18-1.57-.32-.5-.14-1.07-.35-1.7-.65-.63-.29-1.18-.65-1.64-1.07-.17-.15-.25-.29-.25-.44,0-.09.03-.19.08-.28l1.64-2.85c.09-.17.24-.26.45-.27.1,0,.19.03.27.08Z"/>
        <path class="cls-2" d="m83.67,80.77h-2.53c-.23,0-.45-.17-.66-.5l-1.78-4.41v8.31c0,.15-.05.27-.16.37s-.23.15-.36.15h-3.89c-.37,0-.55-.17-.55-.52v-17.04c0-.17.06-.3.18-.4.12-.1.24-.15.37-.15h3.92c.23,0,.45.18.66.55l3.54,8.73,3.54-8.73c.22-.36.44-.55.66-.55h3.9c.13,0,.25.05.37.14.12.09.18.23.18.41v17.04c0,.35-.18.52-.55.52h-3.87c-.13,0-.25-.05-.36-.14-.11-.09-.16-.22-.16-.38v-8.31l-1.78,4.41c-.21.34-.43.5-.66.5Z"/>
        <path class="cls-2" d="m104.09,84.16l-.55-1.84h-5.16l-.55,1.84c-.09.35-.27.52-.52.52h-3.87c-.13,0-.25-.05-.36-.14-.11-.09-.16-.22-.16-.38l5.16-17.04c.09-.36.27-.55.52-.55h4.77c.25,0,.43.18.52.55l5.12,17.04c0,.15-.05.27-.16.37s-.23.15-.36.15h-3.89c-.25,0-.43-.17-.52-.52Zm-3.1-10.67l-1.29,4.32h2.53l-1.23-4.32Z"/>
        <path class="cls-2" d="m119.23,84.16l-1.63-3.33c-.13.02-.35.03-.66.03h-1.12v3.3c0,.15-.05.27-.16.37-.11.1-.23.15-.36.15h-3.89c-.36,0-.55-.17-.55-.52v-17.04c0-.17.06-.3.18-.4.12-.1.24-.15.37-.15h5.53c.94,0,1.79.11,2.57.33s1.4.51,1.87.86c.47.36.88.75,1.23,1.18s.62.87.78,1.31c.16.44.29.84.39,1.19.09.36.14.65.14.87l.03.32v2.15c0,.22-.02.49-.07.83-.05.34-.25.9-.6,1.7-.36.8-.85,1.46-1.47,1.99l2.39,4.86c0,.35-.18.52-.55.52h-3.86c-.21,0-.4-.17-.55-.52Zm-2.29-12.87h-1.12v4.86h1.12c1.34,0,2.01-.66,2.01-1.99v-.88c0-1.32-.67-1.98-2.01-1.98Z"/>
        <path class="cls-2" d="m129.49,70.8h-3.79c-.15,0-.27-.05-.37-.16-.1-.11-.15-.23-.15-.36v-3.16c0-.36.17-.55.52-.55h12.53c.35,0,.52.18.52.55v3.16c0,.13-.05.25-.15.36-.1.11-.22.16-.37.16h-3.8v13.36c0,.15-.05.27-.15.37-.1.1-.22.15-.35.15h-3.89c-.36,0-.55-.17-.55-.52v-13.36Z"/>
      </g>
      <path class="cls-1" d="m196.55,0H21.83C9.99,0,0,10.01,0,21.85v147.28c0,11.84,9.99,21.85,21.83,21.85h103.94l35.33,38.84c.68.77,1.68,1.2,2.69,1.2.45,0,.89-.09,1.32-.25,1.4-.52,2.32-1.88,2.32-3.39v-36.4h29.11c11.84,0,21.85-10.01,21.85-21.85V21.85c0-11.84-10.01-21.85-21.85-21.85h0Zm14.56,169.14c0,7.9-6.67,14.55-14.56,14.55h-32.75c-2.02,0-3.65,1.65-3.65,3.65v30.62l-30-32.99-18.2-21.17c-1.29-1.51-3.62-1.7-5.12-.39-1.52,1.32-1.71,3.62-.39,5.15l13.02,15.13H21.83c-7.89,0-14.55-6.65-14.55-14.55V21.85c0-7.9,6.66-14.57,14.55-14.57h174.72c7.89,0,14.56,6.67,14.56,14.57v147.28Z"/>
      <g>
        <path class="cls-2" d="m27.56,209.24v-3.98c0-.29.03-.58.08-.88.06-.3.18-.65.38-1.04.2-.39.45-.73.75-1.02.31-.29.74-.54,1.29-.75.56-.21,1.2-.31,1.93-.31.68,0,1.48.07,2.4.22.07.03.11.08.11.17l-.07.5c0,.07-.06.11-.18.11-.98-.17-1.64-.24-1.97-.24-2.62,0-3.92,1.21-3.92,3.62v3.19c0,2.41,1.31,3.62,3.92,3.62.34,0,.99-.08,1.97-.24.12,0,.18.04.18.11l.07.5c0,.09-.04.14-.11.17-.93.15-1.73.23-2.4.22-.73,0-1.37-.1-1.93-.31-.56-.21-.99-.46-1.29-.75s-.56-.64-.75-1.03c-.2-.39-.32-.73-.38-1.03-.05-.3-.08-.59-.08-.88Z"/>
        <path class="cls-2" d="m42.05,201.51l3.91,11.51c0,.1-.05.15-.14.15h-.52c-.07,0-.13-.04-.17-.13l-.9-2.67h-5.65l-.93,2.67c-.04.08-.09.13-.17.13h-.52c-.09,0-.13-.05-.14-.15l3.9-11.51c.04-.11.11-.17.23-.17h.86c.12,0,.19.06.23.17Zm-3.24,8.09h5.14l-2.57-7.59-2.58,7.59Z"/>
        <path class="cls-2" d="m56.03,213.02l-6.88-10.26v10.24c0,.11-.06.17-.17.17h-.46c-.11,0-.17-.05-.17-.17v-11.5c0-.11.06-.17.17-.17h.51c.06,0,.13.05.2.15l6.88,10.23v-10.21c0-.11.06-.17.17-.17h.45c.11,0,.17.06.17.17v11.5c0,.11-.06.17-.17.17h-.5c-.06,0-.13-.05-.2-.15Z"/>
        <path class="cls-2" d="m64.55,201.51l3.9,11.51c0,.1-.05.15-.14.15h-.52c-.07,0-.13-.04-.17-.13l-.9-2.67h-5.65l-.93,2.67c-.04.08-.09.13-.17.13h-.52c-.09,0-.13-.05-.14-.15l3.91-11.51c.04-.11.11-.17.23-.17h.86c.12,0,.19.06.23.17Zm-3.24,8.09h5.14l-2.57-7.59-2.58,7.59Z"/>
        <path class="cls-2" d="m77.23,213.17h-6.2c-.11,0-.17-.05-.17-.17v-11.5c0-.11.06-.17.17-.17h.46c.11,0,.17.06.17.17v10.89h5.57c.11,0,.17.05.17.16v.44c0,.11-.06.17-.17.17Z"/>
        <path class="cls-2" d="m87.3,213.17h-3.12c-.11,0-.17-.05-.17-.17v-11.5c0-.11.05-.17.17-.17h3.12c.76,0,1.43.12,1.99.35s.98.51,1.23.84c.26.33.46.66.61.99.15.33.23.62.24.86l.04.33v5.07c0,.09,0,.21-.03.37-.02.16-.1.43-.25.82-.15.39-.35.73-.61,1.02-.26.29-.67.56-1.23.81-.57.24-1.23.37-1.99.37Zm0-11.05h-2.49v10.29h2.49c.25,0,.5-.02.73-.06.24-.04.52-.12.86-.26.33-.14.62-.32.87-.55.24-.23.45-.57.62-1,.17-.44.25-.95.25-1.54v-3.46c0-.59-.08-1.1-.25-1.54-.17-.44-.37-.77-.62-1-.24-.23-.53-.42-.87-.55-.33-.14-.62-.22-.86-.26-.24-.04-.48-.05-.73-.05Z"/>
        <path class="cls-2" d="m96.3,201.65c.57-.26,1.25-.38,2.04-.38s1.47.13,2.04.38c.57.26.99.55,1.26.87.27.32.48.72.64,1.19.16.47.24.82.26,1.05.02.23.03.48.03.74v3.67c0,.24,0,.47-.03.68s-.11.55-.26,1c-.16.45-.37.84-.64,1.15-.27.32-.69.6-1.26.85-.57.25-1.25.38-2.04.38s-1.47-.12-2.04-.38c-.57-.25-.99-.53-1.26-.85-.27-.32-.48-.7-.64-1.15-.16-.45-.25-.79-.27-1-.02-.22-.03-.45-.03-.68v-3.67c0-.26.01-.51.03-.74.02-.23.11-.58.27-1.05.16-.47.37-.87.64-1.19.27-.32.69-.61,1.26-.87Zm1.03,10.7c.33.08.67.12,1.01.12s.67-.04,1-.12c.33-.08.69-.23,1.09-.45.39-.22.72-.58.97-1.09.25-.51.38-1.12.38-1.85v-3.41c0-.73-.13-1.34-.38-1.85-.25-.51-.57-.87-.97-1.09-.39-.22-.76-.37-1.09-.45-.33-.08-.66-.12-1-.12s-.68.04-1.01.12c-.33.08-.7.23-1.09.45-.39.22-.72.58-.97,1.09-.25.51-.38,1.12-.38,1.85v3.41c0,.73.12,1.34.38,1.85.25.51.57.87.97,1.09.39.22.76.37,1.09.45Z"/>
        <path class="cls-2" d="m27.56,223.26v-3.98c0-.29.03-.58.08-.88.06-.3.18-.65.38-1.04.2-.39.45-.73.75-1.02.31-.29.74-.54,1.29-.75.56-.21,1.2-.31,1.93-.31.68,0,1.48.07,2.4.22.07.03.11.08.11.17l-.07.5c0,.07-.06.11-.18.11-.98-.17-1.64-.24-1.97-.24-2.62,0-3.92,1.21-3.92,3.62v3.19c0,2.41,1.31,3.62,3.92,3.62.34,0,.99-.08,1.97-.24.12,0,.18.04.18.11l.07.5c0,.09-.04.14-.11.17-.93.15-1.73.23-2.4.22-.73,0-1.37-.1-1.93-.31-.56-.21-.99-.46-1.29-.75s-.56-.64-.75-1.03c-.2-.39-.32-.73-.38-1.03-.05-.3-.08-.59-.08-.88Z"/>
        <path class="cls-2" d="m39.49,215.67c.57-.26,1.25-.38,2.03-.38s1.47.13,2.04.38c.57.26.99.55,1.26.87.27.32.48.72.64,1.19.16.47.24.82.26,1.05.02.23.03.48.03.74v3.67c0,.24,0,.47-.03.68-.02.22-.1.55-.26,1-.16.45-.37.84-.64,1.15-.27.32-.69.6-1.26.85-.57.25-1.25.38-2.04.38s-1.47-.12-2.03-.38c-.57-.25-.99-.53-1.26-.85-.27-.32-.48-.7-.64-1.15s-.24-.79-.27-1-.03-.45-.03-.68v-3.67c0-.26.01-.51.03-.74.02-.23.11-.58.27-1.05.16-.47.37-.87.64-1.19.27-.32.69-.61,1.26-.87Zm1.03,10.7c.33.08.67.12,1.01.12s.67-.04,1-.12c.33-.08.69-.23,1.09-.45.39-.22.72-.58.97-1.09.25-.51.38-1.12.38-1.85v-3.41c0-.73-.13-1.34-.38-1.85-.25-.51-.57-.87-.97-1.09-.39-.22-.76-.37-1.09-.45-.33-.08-.66-.12-1-.12s-.67.04-1.01.12c-.33.08-.7.23-1.09.45-.39.22-.72.58-.97,1.09-.25.51-.38,1.12-.38,1.85v3.41c0,.73.13,1.34.38,1.85.25.51.57.87.97,1.09.39.22.76.37,1.09.45Z"/>
        <path class="cls-2" d="m56.3,227.04l-6.88-10.26v10.24c0,.11-.05.17-.17.17h-.46c-.11,0-.17-.05-.17-.17v-11.5c0-.11.05-.17.17-.17h.51c.06,0,.13.05.2.15l6.88,10.23v-10.21c0-.11.05-.17.17-.17h.45c.11,0,.17.06.17.17v11.5c0,.11-.06.17-.17.17h-.5c-.06,0-.13-.05-.2-.15Z"/>
        <path class="cls-2" d="m60.68,225.95c.93.36,1.98.54,3.15.54.6,0,1.11-.04,1.54-.13.43-.08.76-.19.99-.32.23-.12.41-.29.54-.5s.21-.4.25-.57c.03-.17.05-.38.05-.62,0-.48-.13-.89-.39-1.24s-.61-.63-1.04-.83c-.43-.2-.9-.39-1.41-.56-.51-.17-1.03-.35-1.55-.54s-.99-.4-1.42-.64-.77-.56-1.03-.97c-.26-.41-.39-.88-.39-1.43,0-1,.34-1.73,1.03-2.18s1.6-.67,2.75-.67,1.96.1,2.57.31c.07.02.11.08.12.17l-.12.41c-.01.07-.07.11-.18.11-.5-.17-1.19-.24-2.06-.24-1.11,0-1.94.15-2.49.45-.55.3-.82.85-.82,1.65,0,.46.13.86.39,1.19.26.33.61.6,1.04.8.43.2.9.38,1.42.55.52.16,1.03.34,1.54.52.51.19.98.4,1.41.65.43.25.77.58,1.04,1,.26.42.39.91.39,1.48,0,.27-.02.52-.06.74-.04.22-.14.47-.3.77-.16.3-.39.54-.67.72-.29.19-.7.35-1.25.49-.54.14-1.19.21-1.94.21-1.23-.01-2.34-.2-3.35-.58-.07-.02-.11-.08-.11-.17l.17-.45c.04-.07.1-.11.2-.11Z"/>
        <path class="cls-2" d="m77,226.9c-.58.24-1.28.36-2.09.36s-1.51-.12-2.09-.36c-.58-.24-1.02-.56-1.32-.97-.29-.41-.5-.83-.63-1.26-.13-.43-.19-.9-.19-1.42v-7.74c0-.11.06-.17.17-.17h.46c.11,0,.17.06.17.17v7.53c0,.59.09,1.1.27,1.55s.39.79.64,1.02c.24.23.54.42.88.55.34.14.64.22.89.26.25.04.5.06.75.06s.5-.02.75-.06c.25-.04.55-.12.89-.26.34-.14.64-.32.88-.55s.46-.57.64-1.01c.18-.44.28-.96.28-1.55v-7.53c0-.11.05-.17.16-.17h.45c.11,0,.17.06.17.17v7.74c0,.51-.06.99-.19,1.42s-.34.85-.63,1.26c-.3.41-.74.73-1.32.97Z"/>
        <path class="cls-2" d="m87.69,224.8h-.75c-.09,0-.15-.05-.2-.15l-3.74-7.55v9.92c0,.11-.06.17-.17.17h-.46c-.11,0-.17-.05-.17-.17v-11.5c0-.11.06-.17.17-.17h.51c.06,0,.13.05.2.15l4.23,8.56,4.23-8.56c.07-.1.14-.15.2-.15h.51c.11,0,.17.06.17.17v11.5c0,.11-.06.17-.17.17h-.46c-.11,0-.17-.05-.17-.17v-9.92l-3.74,7.55c-.05.1-.12.15-.2.15Z"/>
        <path class="cls-2" d="m96.27,215.52v11.5c0,.11-.06.17-.17.17h-.46c-.11,0-.17-.05-.17-.17v-11.5c0-.11.06-.17.17-.17h.46c.11,0,.17.06.17.17Z"/>
        <path class="cls-2" d="m102.63,227.18h-3.12c-.11,0-.17-.05-.17-.17v-11.5c0-.11.06-.17.17-.17h3.12c.76,0,1.43.12,1.99.35s.98.51,1.23.84c.26.33.46.66.61.99.15.33.23.62.24.86l.04.33v5.07c0,.09,0,.21-.03.37s-.1.43-.25.82c-.15.39-.35.73-.61,1.02-.26.29-.67.56-1.23.81-.57.24-1.23.37-1.99.37Zm0-11.05h-2.49v10.29h2.49c.25,0,.5-.02.73-.06.24-.04.52-.12.86-.26.33-.14.62-.32.87-.55.24-.23.45-.57.62-1,.17-.44.25-.95.25-1.54v-3.46c0-.59-.08-1.1-.25-1.54-.17-.44-.37-.77-.62-1-.24-.23-.53-.42-.87-.55-.33-.14-.62-.22-.86-.26-.24-.04-.48-.05-.73-.05Z"/>
        <path class="cls-2" d="m111.63,215.67c.57-.26,1.25-.38,2.04-.38s1.47.13,2.04.38c.57.26.99.55,1.26.87.27.32.48.72.64,1.19.16.47.24.82.26,1.05.02.23.03.48.03.74v3.67c0,.24,0,.47-.03.68s-.11.55-.26,1-.37.84-.64,1.15c-.27.32-.69.6-1.26.85-.57.25-1.25.38-2.04.38s-1.47-.12-2.04-.38c-.57-.25-.99-.53-1.26-.85-.27-.32-.48-.7-.64-1.15-.16-.45-.24-.79-.27-1-.02-.22-.03-.45-.03-.68v-3.67c0-.26.01-.51.03-.74.02-.23.11-.58.27-1.05.16-.47.37-.87.64-1.19.27-.32.69-.61,1.26-.87Zm1.03,10.7c.33.08.67.12,1.01.12s.67-.04,1-.12c.33-.08.69-.23,1.09-.45.39-.22.72-.58.97-1.09.25-.51.38-1.12.38-1.85v-3.41c0-.73-.12-1.34-.38-1.85-.25-.51-.57-.87-.97-1.09-.39-.22-.76-.37-1.09-.45-.33-.08-.66-.12-1-.12s-.68.04-1.01.12c-.33.08-.7.23-1.09.45-.39.22-.72.58-.97,1.09-.25.51-.38,1.12-.38,1.85v3.41c0,.73.12,1.34.38,1.85.25.51.57.87.97,1.09.39.22.76.37,1.09.45Z"/>
        <path class="cls-2" d="m120.94,215.36h3.25c.78,0,1.45.12,2.01.37.56.24.98.52,1.25.83s.48.67.63,1.09.24.73.26.94.04.41.04.6v.95c0,.19-.02.39-.05.6s-.11.52-.23.92-.36.77-.69,1.12c-.34.35-.76.61-1.27.8l1.52,3.47c0,.1-.05.15-.14.15h-.52c-.07,0-.13-.04-.17-.13l-1.46-3.27c-.37.06-.76.09-1.16.1h-2.63v3.13c0,.11-.05.17-.17.17h-.46c-.11,0-.17-.05-.17-.17v-11.5c0-.11.05-.17.17-.17Zm3.22.77h-2.59v6.98h2.59c2.29,0,3.43-1.09,3.43-3.27v-.47c0-2.16-1.14-3.25-3.43-3.25Z"/>
      </g>
    </g>
  </g>
</svg>