<?xml version="1.0" encoding="UTF-8"?>
<svg id="Camada_2" data-name="Camada 2" xmlns="http://www.w3.org/2000/svg" viewBox="0 0 18.92 16.23">
  <defs>
    <style>
      .cls-1 {
        fill: #fff;
        stroke-width: 0px;
      }
    </style>
  </defs>
  <g id="Camada_1-2" data-name="Camada 1">
    <path class="cls-1" d="m2.81,14.76v1.48h16.11v-.74c0-1.77-.69-3.44-1.95-4.7-1.26-1.25-2.93-1.94-4.7-1.94h-.59v-1.48h-1.48v1.48h-2.96v-2.21c0-.41.33-.74.74-.74h6.65v-1.48H6.5c-.83,0-1.6.28-2.22.74v-1.48C4.29,1.66,2.63,0,.59,0h-.59v1.48h.59c1.22,0,2.22.99,2.22,2.21v9.59h.74c.41,0,.74.33.74.74v.74h-1.48Zm14.58,0H5.76v-.74c0-.26-.05-.51-.13-.74h11.3c.22.46.37.95.45,1.48Zm-13.1-6.64c0-1,.66-1.84,1.57-2.12-.06.2-.1.42-.1.64v3.69h6.5c1.41,0,2.68.56,3.61,1.48H4.29v-3.69Z"/>
  </g>
</svg>