<?xml version="1.0" encoding="UTF-8"?>
<svg id="Camada_2" data-name="Camada 2" xmlns="http://www.w3.org/2000/svg" viewBox="0 0 18.92 17.57">
  <defs>
    <style>
      .cls-1 {
        fill: #fff;
        stroke-width: 0px;
      }
    </style>
  </defs>
  <g id="Camada_1-2" data-name="Camada 1">
    <path class="cls-1" d="m13.89,7.16c1.85,0,3.02-2.02,2.08-3.62L13.89,0l-2.08,3.54c-.93,1.59.21,3.62,2.08,3.62Zm-.8-2.87l.8-1.37.8,1.37c.36.61-.08,1.4-.8,1.4s-1.16-.78-.8-1.4ZM5.02,14.62c.41,0,.74-.33.74-.74s-.33-.74-.74-.74-.74.33-.74.74.33.74.74.74Zm11.08-7.38v1.48h1.33v1.48h-2.81v-1.48h-1.48v1.48h-2.96v-1.48h1.48v-1.48h-4.43v1.48h1.48v1.48h-2.96v-1.48h-1.48v1.48H1.48v-1.48h1.33v-1.48H0v10.33h18.92V7.24h-2.81Zm1.33,8.85H1.48v-4.43h15.96v4.43ZM5.02,7.16c1.85,0,3.02-2.02,2.08-3.62L5.02,0l-2.08,3.54c-.93,1.59.21,3.62,2.08,3.62Zm-.8-2.87l.8-1.37.8,1.37c.36.61-.08,1.4-.8,1.4s-1.16-.78-.8-1.4Zm9.67,10.33c.41,0,.74-.33.74-.74s-.33-.74-.74-.74-.74.33-.74.74.33.74.74.74Z"/>
  </g>
</svg>