<svg xmlns="http://www.w3.org/2000/svg" viewBox="0 0 20.45 20.45"><defs><style>.cls-1{fill:#fff;}</style></defs><g id="Camada_2" data-name="Camada 2"><g id="Header"><path class="cls-1" d="M15.58,4.09A1.21,1.21,0,1,0,16.79,5.3,1.21,1.21,0,0,0,15.58,4.09Z"/><path class="cls-1" d="M10.22,5.64a5.07,5.07,0,1,0,5.07,5.06A5.07,5.07,0,0,0,10.22,5.64Zm0,8.31a3.25,3.25,0,1,1,3.25-3.25A3.25,3.25,0,0,1,10.22,14Z"/><path class="cls-1" d="M14.26,0H6.19A6.19,6.19,0,0,0,0,6.19v8.07a6.19,6.19,0,0,0,6.19,6.19h8.07a6.19,6.19,0,0,0,6.19-6.19V6.19A6.19,6.19,0,0,0,14.26,0Zm4.46,14.45a4.27,4.27,0,0,1-4.27,4.27H6a4.28,4.28,0,0,1-4.28-4.27V6A4.28,4.28,0,0,1,6,1.72h8.45A4.28,4.28,0,0,1,18.72,6Z"/></g></g></svg>