<?xml version="1.0" encoding="UTF-8"?>
<svg id="Camada_2" data-name="Camada 2" xmlns="http://www.w3.org/2000/svg" viewBox="0 0 14.99 18.89">
  <defs>
    <style>
      .cls-1 {
        fill: #fff;
        stroke-width: 0px;
      }
    </style>
  </defs>
  <g id="Camada_1-2" data-name="Camada 1">
    <path class="cls-1" d="m14.99,10.04v-4.87c0-1.22-.99-2.21-2.22-2.21h-1.02l-.87-1.73c-.38-.75-1.14-1.22-1.98-1.22h-4.08c-.85,0-1.6.47-1.98,1.22l-.87,1.73H.21v1.48h1.48v7.73l-1.69,6.73h13.71l-1.69-6.73v-7.73h.74c.41,0,.74.33.74.74v4.87h1.48ZM4.15,1.88c.13-.25.38-.41.66-.41h4.08c.28,0,.53.16.66.41l.53,1.07H3.62l.53-1.07Zm-.99,2.54h7.39v2.8c-1.7-.01-2.6-.34-3.54-.69-.99-.36-2.01-.74-3.84-.78v-1.33Zm0,2.81c1.56.04,2.43.35,3.33.69,1.03.38,2.09.77,4.06.78v2.8h-2.5l.94-1.88-1.32-.66-.82,1.63-.82-1.63-1.32.66.94,1.88h-2.5v-4.28Zm-1.27,10.18l1.11-4.43h7.71l1.11,4.43H1.89Zm4.96-2.95c-.41,0-.74.33-.74.74s.33.74.74.74.74-.33.74-.74-.33-.74-.74-.74Z"/>
  </g>
</svg>