<?xml version="1.0" encoding="UTF-8"?>
<svg id="Camada_2" data-name="Camada 2" xmlns="http://www.w3.org/2000/svg" viewBox="0 0 35.38 35.38">
  <defs>
    <style>
      .cls-1 {
        fill: #646363;
      }

      .cls-1, .cls-2 {
        stroke-width: 0px;
      }

      .cls-2 {
        fill: #fff;
      }
    </style>
  </defs>
  <g id="Camada_1-2" data-name="Camada 1">
    <g>
      <circle class="cls-1" cx="17.69" cy="17.69" r="17.69"/>
      <g>
        <path class="cls-2" d="m7.65,8.86l8.2,9.31c.47.53,1.14.83,1.84.83s1.38-.3,1.84-.83l8.06-9.14c.07-.08.15-.13.23-.18-.34-.15-.72-.23-1.11-.23H8.67c-.38,0-.74.08-1.07.21.01.01.03.02.04.04Z"/>
        <path class="cls-2" d="m29.06,9.91c-.04.09-.09.19-.16.27l-8.06,9.14c-.8.91-1.95,1.43-3.16,1.43s-2.36-.52-3.16-1.43L6.33,10.02s-.03-.04-.04-.06c-.25.42-.4.91-.4,1.44v12.6c0,1.54,1.25,2.79,2.79,2.79h18.03c1.54,0,2.79-1.25,2.79-2.79v-12.6c0-.54-.16-1.05-.43-1.48Z"/>
      </g>
    </g>
  </g>
</svg>