<?xml version="1.0" encoding="UTF-8"?>
<svg id="Camada_2" data-name="Camada 2" xmlns="http://www.w3.org/2000/svg" viewBox="0 0 46.31 22.59">
  <defs>
    <style>
      .cls-1 {
        fill: #636362;
        stroke-width: 0px;
      }
    </style>
  </defs>
  <g id="Header">
    <g>
      <path class="cls-1" d="m6.43,5.17h-.49v11.17c0,.82.67,1.48,1.48,1.48s1.48-.67,1.48-1.48v-2.47h.99v-5.24c0-1.91-1.55-3.46-3.46-3.46Zm1.48,11.17c0,.27-.22.49-.49.49s-.49-.22-.49-.49v-2.47h.99v2.47Zm.99-3.46h-1.98v-6.67c1.13.23,1.98,1.23,1.98,2.42v4.25ZM3.46,5.17h-1.98c-.82,0-1.48.67-1.48,1.48v.99c0,1.19.85,2.19,1.98,2.42v.93c-.58.2-.99.75-.99,1.4v3.95c0,.82.67,1.48,1.48,1.48s1.48-.67,1.48-1.48v-3.95c0-.64-.41-1.19-.99-1.4v-.93c1.13-.23,1.98-1.23,1.98-2.42v-.99c0-.82-.67-1.48-1.48-1.48ZM.99,7.64v-.99c0-.27.22-.49.49-.49h.49v2.88c-.58-.2-.99-.75-.99-1.4Zm1.98,8.7c0,.27-.22.49-.49.49s-.49-.22-.49-.49v-3.95c0-.27.22-.49.49-.49s.49.22.49.49v3.95Zm.99-8.7c0,.64-.41,1.19-.99,1.4v-2.88h.49c.27,0,.49.22.49.49v.99Z"/>
      <g>
        <path class="cls-1" d="m21.96,7.03h-2.23s-.06-.02-.06-.06V2.84s.02-.06.06-.06h.16s.06.02.06.06v3.91h2s.06.02.06.06v.16s-.02.06-.06.06Z"/>
        <path class="cls-1" d="m23.34,2.84v4.13s-.02.06-.06.06h-.16s-.06-.02-.06-.06V2.84s.02-.06.06-.06h.16s.06.02.06.06Z"/>
        <path class="cls-1" d="m27.2,6.97l-2.47-3.69v3.68s-.02.06-.06.06h-.16s-.06-.02-.06-.06V2.84s.02-.06.06-.06h.18s.05.02.07.05l2.47,3.68v-3.67s.02-.06.06-.06h.16s.06.02.06.06v4.13s-.02.06-.06.06h-.18s-.05-.02-.07-.05Z"/>
        <path class="cls-1" d="m31.55,2.84v4.13s-.02.06-.06.06h-.16s-.06-.02-.06-.06v-1.68h-2.36v1.68s-.02.06-.06.06h-.16s-.06-.02-.06-.06V2.84s.02-.06.06-.06h.16s.06.02.06.06v2.17h2.36v-2.17s.02-.06.06-.06h.16s.06.02.06.06Z"/>
        <path class="cls-1" d="m34.3,2.84l1.4,4.14s-.02.05-.05.05h-.19s-.05-.01-.06-.05l-.32-.96h-2.03l-.33.96s-.03.05-.06.05h-.19s-.05-.02-.05-.05l1.4-4.14s.04-.06.08-.06h.31s.07.02.08.06Zm-1.16,2.91h1.85l-.92-2.73-.93,2.73Z"/>
        <path class="cls-1" d="m20.6,10.81v1.04c0,.19.08.33.23.42.15.09.32.13.51.13.1,0,.24-.02.43-.06s.3-.07.34-.07c.04,0,.08.02.1.06.1.52.15.81.15.87,0,.04-.02.06-.07.09-.29.15-.68.22-1.16.22-.22,0-.42-.03-.61-.08-.18-.05-.33-.12-.44-.2-.11-.08-.21-.18-.3-.28s-.15-.21-.2-.31c-.04-.1-.08-.19-.1-.28-.03-.08-.04-.15-.04-.2v-.08s0-1.51,0-1.51c0-.02,0-.04,0-.08,0-.04.02-.1.05-.2.03-.1.06-.19.1-.28.04-.09.1-.19.19-.3s.19-.21.3-.28.26-.14.44-.2c.18-.05.39-.08.61-.08.48,0,.87.08,1.16.22.04.02.07.05.07.09,0,.06-.05.35-.15.87-.02.04-.05.06-.1.06-.04,0-.15-.03-.34-.07s-.33-.06-.43-.06c-.19,0-.36.04-.51.13-.15.09-.23.23-.23.42Z"/>
        <path class="cls-1" d="m24.57,9.15c.22,0,.42.03.6.08s.33.12.44.2c.11.08.21.18.29.28.08.1.14.2.18.31.04.1.07.2.09.28.02.08.03.15.04.21v1.58s0,.09,0,.16-.04.18-.1.34c-.06.16-.14.31-.25.43s-.27.24-.49.34c-.23.1-.49.16-.8.16-.22,0-.42-.03-.6-.08-.18-.05-.33-.12-.44-.2-.11-.08-.21-.18-.29-.28-.08-.1-.14-.21-.18-.31-.04-.1-.07-.19-.09-.28-.02-.08-.04-.15-.04-.2v-1.58s0-.09,0-.15c0-.06.04-.18.1-.34.06-.17.14-.31.25-.43.1-.12.27-.24.49-.34s.49-.16.8-.16Zm0,3.26c.32,0,.47-.16.47-.47v-1.21c0-.31-.16-.46-.47-.47s-.47.15-.47.47v1.21c0,.31.16.47.47.47Z"/>
        <path class="cls-1" d="m29.46,9.34v.77c0,.06-.02.12-.06.17l-1.48,2.2h1.41s.06.01.09.04c.02.03.03.05.03.08v.74c0,.09-.04.13-.12.13h-2.52s-.06-.01-.09-.03c-.03-.02-.04-.05-.04-.1v-.76c0-.06.02-.12.05-.17l1.55-2.21h-1.48s-.06-.01-.09-.04c-.02-.02-.03-.05-.03-.08v-.74c0-.08.04-.13.12-.13h2.52s.06.01.09.03c.03.02.04.05.04.09Z"/>
        <path class="cls-1" d="m31.23,9.34v4s-.01.06-.04.09c-.03.02-.05.04-.08.04h-.91c-.09,0-.13-.04-.13-.12v-4s.01-.07.04-.09c.03-.02.06-.03.09-.03h.91s.06.01.08.04c.03.02.04.05.04.09Z"/>
        <path class="cls-1" d="m35.3,9.34v4s-.01.06-.04.09c-.03.02-.05.04-.08.04h-.95c-.05,0-.11-.04-.15-.12l-1.02-1.9v1.9s-.01.06-.04.09c-.03.02-.05.04-.08.04h-.91c-.09,0-.13-.04-.13-.12v-4s.01-.07.04-.09c.03-.02.06-.03.09-.03h.92c.05,0,.11.04.15.13l1.04,1.94v-1.94s.01-.07.04-.09c.03-.02.06-.03.09-.03h.91s.06.01.08.04c.03.02.04.05.04.09Z"/>
        <path class="cls-1" d="m39.19,9.34v4s-.01.06-.04.09c-.02.02-.05.04-.09.04h-.91c-.09,0-.13-.04-.13-.12v-1.23h-.9v1.23s-.01.06-.04.09c-.03.02-.05.04-.08.04h-.91c-.09,0-.13-.04-.13-.12v-4s.01-.07.04-.09c.03-.02.06-.03.09-.03h.91s.06.01.08.04c.03.02.04.05.04.09v1.71h.9v-1.71s.01-.07.04-.09c.03-.02.06-.03.09-.03h.91s.06.01.08.04c.03.02.04.05.04.09Z"/>
        <path class="cls-1" d="m42.26,13.34l-.13-.43h-1.21l-.13.43c-.02.08-.06.12-.12.12h-.91s-.06-.01-.08-.03c-.03-.02-.04-.05-.04-.09l1.21-4c.02-.08.06-.13.12-.13h1.12c.06,0,.1.04.12.13l1.2,4s-.01.06-.04.09c-.03.02-.05.04-.08.04h-.91c-.06,0-.1-.04-.12-.12Zm-.73-2.5l-.3,1.01h.59l-.29-1.01Z"/>
        <path class="cls-1" d="m21.79,18.97h-.59c-.05,0-.11-.04-.15-.12l-.42-1.04v1.95s-.01.06-.04.09c-.03.02-.05.03-.08.03h-.91c-.09,0-.13-.04-.13-.12v-4s.01-.07.04-.09c.03-.02.06-.04.09-.04h.92c.05,0,.11.04.15.13l.83,2.05.83-2.05c.05-.09.1-.13.15-.13h.92s.06.01.09.03c.03.02.04.05.04.1v4c0,.08-.04.12-.13.12h-.91s-.06-.01-.08-.03c-.03-.02-.04-.05-.04-.09v-1.95l-.42,1.04c-.05.08-.1.12-.15.12Z"/>
        <path class="cls-1" d="m25.77,15.58c.22,0,.42.03.6.08s.33.12.44.2c.11.08.21.18.29.28.08.1.14.2.18.31.04.1.07.2.09.28.02.08.03.15.04.21v1.58s0,.09,0,.15c0,.06-.04.18-.1.34-.06.17-.14.31-.25.43s-.27.24-.49.34c-.23.1-.49.15-.8.15-.22,0-.42-.03-.6-.08-.18-.05-.33-.12-.44-.2s-.21-.18-.29-.28c-.08-.1-.14-.21-.18-.31-.04-.1-.07-.19-.09-.28-.02-.08-.04-.15-.04-.21v-1.58s0-.09,0-.16.04-.18.1-.34c.06-.16.14-.31.25-.43.1-.12.27-.24.49-.34s.49-.16.8-.16Zm0,3.25c.32,0,.47-.16.47-.47v-1.21c0-.31-.16-.47-.47-.47s-.47.15-.47.47v1.21c0,.31.16.47.47.47Z"/>
        <path class="cls-1" d="m28.15,15.64h1.26c.22,0,.42.03.6.08.18.05.33.12.44.2.11.08.21.18.29.28.08.1.14.2.18.31.04.1.07.2.09.28.02.08.03.15.03.2v.08s0,1.4,0,1.4c0,.04,0,.09,0,.15,0,.06-.04.18-.1.34-.06.16-.14.31-.25.43-.1.12-.27.24-.49.34-.22.1-.49.15-.8.15h-1.26c-.09,0-.13-.04-.13-.12v-4s.01-.07.04-.09c.03-.02.06-.04.09-.04Zm1.26,1.11h-.22v2.04h.22c.31,0,.47-.16.47-.46v-1.11c0-.31-.16-.46-.47-.46Z"/>
        <path class="cls-1" d="m32.82,18.86h1.48s.06.01.09.04c.02.02.03.05.03.09v.78c0,.08-.04.13-.12.13h-2.52s-.06-.01-.09-.03c-.03-.02-.04-.05-.04-.1v-3.99s.01-.07.04-.09c.03-.02.06-.04.09-.04h2.52c.08,0,.12.04.12.13v.78s-.01.06-.03.08c-.02.03-.05.04-.09.04h-1.48v.65h1.19c.08,0,.12.04.12.13v.7s-.01.06-.03.08c-.02.02-.05.04-.09.04h-1.19v.59Z"/>
        <path class="cls-1" d="m37.06,19.77l-.38-.78s-.08,0-.15,0h-.26v.77s-.01.06-.04.09c-.03.02-.05.03-.08.03h-.91c-.09,0-.13-.04-.13-.12v-4s.01-.07.04-.09c.03-.02.06-.04.09-.04h1.3c.22,0,.42.03.6.08.18.05.33.12.44.2.11.08.21.18.29.28.08.1.14.2.18.31.04.1.07.2.09.28.02.08.03.15.03.2v.08s0,.5,0,.5c0,.05,0,.12-.02.19s-.06.21-.14.4-.2.34-.35.47l.56,1.14c0,.08-.04.12-.13.12h-.91c-.05,0-.09-.04-.13-.12Zm-.54-3.02h-.26v1.14h.26c.31,0,.47-.16.47-.47v-.21c0-.31-.16-.46-.47-.46Z"/>
        <path class="cls-1" d="m42.09,15.77v4s-.01.06-.04.09c-.03.02-.05.03-.08.03h-.95c-.05,0-.11-.04-.15-.12l-1.02-1.9v1.9s-.01.06-.04.09c-.03.02-.05.03-.08.03h-.91c-.09,0-.13-.04-.13-.12v-4s.01-.07.04-.09c.03-.02.06-.04.09-.04h.92c.05,0,.11.04.15.13l1.04,1.94v-1.94s.01-.07.04-.09c.03-.02.06-.04.09-.04h.91s.06.01.08.04c.03.03.04.06.04.09Z"/>
        <path class="cls-1" d="m45.15,19.77l-.13-.43h-1.21l-.13.43c-.02.08-.06.12-.12.12h-.91s-.06-.01-.08-.03c-.03-.02-.04-.05-.04-.09l1.21-4c.02-.09.06-.13.12-.13h1.12c.06,0,.1.04.12.13l1.2,4s-.01.06-.04.09c-.03.02-.05.03-.08.03h-.91c-.06,0-.1-.04-.12-.12Zm-.73-2.5l-.3,1.02h.59l-.29-1.02Z"/>
      </g>
      <rect class="cls-1" x="14.57" width=".6" height="22.59"/>
    </g>
  </g>
</svg>