<?xml version="1.0" encoding="UTF-8"?>
<svg id="Camada_2" data-name="Camada 2" xmlns="http://www.w3.org/2000/svg" viewBox="0 0 18.92 17.71">
  <defs>
    <style>
      .cls-1 {
        fill: #fff;
        stroke-width: 0px;
      }
    </style>
  </defs>
  <g id="Camada_1-2" data-name="Camada 1">
    <path class="cls-1" d="m18.18,7.38c-.26,0-.51.05-.74.13v-2.34c0-2.03-1.66-3.69-3.69-3.69h-3.55V0h-1.48v1.48h-3.55c-2.04,0-3.69,1.66-3.69,3.69v2.34c-.54-.19-.9-.11-1.48-.13v1.48h.74c.41,0,.74.33.74.74v4.43c0,.96.62,1.78,1.48,2.09v1.6h1.48v-1.48h10.05v1.48h1.48v-1.6c.86-.3,1.48-1.12,1.48-2.09v-4.43c0-.41.33-.74.74-.74h.74v-1.48h-.74Zm-7.98,7.38h-1.48v-3.69c0-.41.33-.74.74-.74s.74.33.74.74v3.69Zm5.76-.74c0,.41-.33.74-.74.74h-3.55v-3.69c0-1.22-.99-2.21-2.22-2.21s-2.22.99-2.22,2.21v3.69h-3.55c-.41,0-.74-.33-.74-.74v-6.64h13v6.64Zm0-8.12H2.96v-.74c0-1.22.99-2.21,2.22-2.21h8.57c1.22,0,2.22.99,2.22,2.21v.74Z"/>
  </g>
</svg>