<?xml version="1.0" encoding="UTF-8"?>
<svg id="Camada_2" data-name="Camada 2" xmlns="http://www.w3.org/2000/svg" viewBox="0 0 18.91 18.89">
  <defs>
    <style>
      .cls-1 {
        fill: #fff;
        stroke-width: 0px;
      }
    </style>
  </defs>
  <g id="Camada_1-2" data-name="Camada 1">
    <path class="cls-1" d="m14.04,17.41c-.41,0-.74-.33-.74-.74v-2.95c0-1.22-.99-2.21-2.22-2.21s-2.22.99-2.22,2.21v2.95c0,.41-.33.74-.74.74h-1.48c-.41,0-.74-.33-.74-.74v-.86c.86-.3,1.48-1.12,1.48-2.09v-3.89c.47-.22.9-.51,1.29-.87.79-.72,2.07-1.59,3.69-1.59h1.06c.31.86,1.13,1.48,2.09,1.48h2.22V0h-2.22c-.96,0-1.78.62-2.09,1.48h-2.94c-.94,0-1.85-.25-2.62-.72C6.8.1,5.52-.14,4.26.08,2.17.44.45,2.14.08,4.24c-.27,1.53.14,3.08,1.13,4.25.49.58,1.08,1.03,1.75,1.35v3.89c0,.96.62,1.78,1.48,2.09v.86c0,1.22.99,2.21,2.22,2.21h1.48c1.22,0,2.22-.99,2.22-2.21v-2.95c0-.41.33-.74.74-.74s.74.33.74.74v2.95c0,1.22.99,2.21,2.22,2.21h4.88v-1.48h-4.88Zm.74-15.2c0-.41.33-.74.74-.74h.74v5.9h-.74c-.41,0-.74-.33-.74-.74V2.21ZM2.34,7.54c-.71-.85-1-1.93-.8-3.05.26-1.49,1.49-2.7,2.98-2.96.92-.16,1.81.01,2.58.48,1.01.61,2.18.94,3.39.94h2.81v2.95h-.93c-1.67,0-3.29.68-4.69,1.98-.68.63-1.57.97-2.5.97-1.09,0-2.13-.48-2.83-1.32h0Zm2.83,6.93c-.41,0-.74-.33-.74-.74v-3.45c.24.03.49.05.74.05s.5-.02.74-.05v3.45c0,.41-.33.74-.74.74Zm2.22-9.3c0-1.22-.99-2.21-2.22-2.21s-2.22.99-2.22,2.21.99,2.21,2.22,2.21,2.22-.99,2.22-2.21Zm-2.96,0c0-.41.33-.74.74-.74s.74.33.74.74-.33.74-.74.74-.74-.33-.74-.74Z"/>
  </g>
</svg>