<?xml version="1.0" encoding="UTF-8"?>
<svg id="Camada_2" data-name="Camada 2" xmlns="http://www.w3.org/2000/svg" viewBox="0 0 18.92 14.76">
  <defs>
    <style>
      .cls-1 {
        fill: #fff;
        stroke-width: 0px;
      }
    </style>
  </defs>
  <g id="Camada_1-2" data-name="Camada 1">
    <path class="cls-1" d="m17.44,4.55v-.86c0-2.03-1.66-3.69-3.69-3.69H5.17C3.14,0,1.48,1.66,1.48,3.69v.86c-.86.3-1.48,1.12-1.48,2.09v4.43c0,.96.62,1.78,1.48,2.09v1.6h1.48v-1.48h13v1.48h1.48v-1.6c.86-.3,1.48-1.12,1.48-2.09v-4.43c0-.96-.62-1.78-1.48-2.09Zm-14.48-.86c0-1.22.99-2.21,2.22-2.21h8.57c1.22,0,2.22.99,2.22,2.21v.86c-.63.22-1.13.72-1.35,1.35h-3.67c-.57,0-1.09.21-1.48.57-.39-.35-.91-.57-1.48-.57h-3.67c-.22-.63-.72-1.13-1.35-1.35v-.86Zm11.53,3.69v1.48h-4.29v-.74c0-.41.33-.74.74-.74h3.55Zm-5.76.74v.74h-4.29v-1.48h3.55c.41,0,.74.33.74.74Zm8.72,2.95c0,.41-.33.74-.74.74H2.22c-.41,0-.74-.33-.74-.74v-4.43c0-.41.33-.74.74-.74s.74.33.74.74v3.69h13v-3.69c0-.41.33-.74.74-.74s.74.33.74.74v4.43Z"/>
  </g>
</svg>