<?xml version="1.0" encoding="UTF-8"?>
<svg id="Camada_2" data-name="Camada 2" xmlns="http://www.w3.org/2000/svg" viewBox="0 0 18.92 16.23">
  <defs>
    <style>
      .cls-1 {
        fill: #fff;
        stroke-width: 0px;
      }
    </style>
  </defs>
  <g id="Camada_1-2" data-name="Camada 1">
    <path class="cls-1" d="m14.48,12.54c0,.41.33.74.74.74s.74-.33.74-.74-.33-.74-.74-.74-.74.33-.74.74Zm.74-6.64c-.41,0-.74.33-.74.74s.33.74.74.74.74-.33.74-.74-.33-.74-.74-.74ZM2.96,12.54c0,.41.33.74.74.74s.74-.33.74-.74-.33-.74-.74-.74-.74.33-.74.74ZM11.53,0v10.33h-4.14V0H0v16.23h18.92V0h-7.39Zm-5.62,14.76H1.48v-5.17c.62.46,1.39.74,2.22.74s1.6-.28,2.22-.74v5.17Zm-2.22-5.9c-1.22,0-2.22-.99-2.22-2.21s.99-2.21,2.22-2.21,2.22.99,2.22,2.21-.99,2.21-2.22,2.21Zm2.22-5.16c-.62-.46-1.39-.74-2.22-.74s-1.6.28-2.22.74V1.48h4.43v2.22Zm5.62,11.07h-1.33v-1.48h-1.48v1.48h-1.33v-2.95h4.14v2.95Zm5.91,0h-4.43v-5.17c.62.46,1.39.74,2.22.74s1.6-.28,2.22-.74v5.17Zm-2.22-5.9c-1.22,0-2.22-.99-2.22-2.21s.99-2.21,2.22-2.21,2.22.99,2.22,2.21-.99,2.21-2.22,2.21Zm2.22-5.16c-.62-.46-1.39-.74-2.22-.74s-1.6.28-2.22.74V1.48h4.43v2.22ZM3.69,5.9c-.41,0-.74.33-.74.74s.33.74.74.74.74-.33.74-.74-.33-.74-.74-.74Z"/>
  </g>
</svg>