<?xml version="1.0" encoding="UTF-8"?>
<svg id="Camada_2" data-name="Camada 2" xmlns="http://www.w3.org/2000/svg" viewBox="0 0 17.73 18.89">
  <defs>
    <style>
      .cls-1 {
        fill: #fff;
        stroke-width: 0px;
      }
    </style>
  </defs>
  <g id="Camada_1-2" data-name="Camada 1">
    <path class="cls-1" d="m3.69,10.04c-.41,0-.74.33-.74.74s.33.74.74.74.74-.33.74-.74-.33-.74-.74-.74Zm12.49,0c-.29-1.44-1.44-2.58-2.88-2.88v-2.86c.86-.3,1.48-1.13,1.48-2.09,0-1.22-.99-2.21-2.22-2.21H3.69C2.47,0,1.48.99,1.48,2.21c0,.96.62,1.78,1.48,2.09v2.86c-1.68.34-2.96,1.83-2.96,3.62v4.43c0,1.22.99,2.21,2.22,2.21h.74v1.48h1.48v-1.48h7.39v1.48h1.48v-1.48h.74c1.22,0,2.22-.99,2.22-2.21v-3.69h1.48v-1.48h-1.55ZM3.69,1.48h8.87c.41,0,.74.33.74.74s-.33.74-.74.74h-.74v4.13h-7.39V2.95h-.74c-.41,0-.74-.33-.74-.74s.33-.74.74-.74Zm11.08,13.72c0,.41-.33.74-.74.74H2.22c-.41,0-.74-.33-.74-.74v-4.43c0-1.22.99-2.21,2.22-2.21h8.87c1.22,0,2.22.99,2.22,2.21v4.43Zm-11.08-2.21c-.41,0-.74.33-.74.74s.33.74.74.74.74-.33.74-.74-.33-.74-.74-.74Z"/>
  </g>
</svg>