<?xml version="1.0" encoding="UTF-8"?>
<svg id="Camada_2" data-name="Camada 2" xmlns="http://www.w3.org/2000/svg" viewBox="0 0 16.26 18.89">
  <defs>
    <style>
      .cls-1 {
        fill: #fff;
        stroke-width: 0px;
      }
    </style>
  </defs>
  <g id="Camada_1-2" data-name="Camada 1">
    <path class="cls-1" d="m16.26,8.12C16.26,3.63,12.62,0,8.13,0S0,3.63,0,8.12c0,3.53,2.24,6.47,5.28,7.61l-.62,1.69h-1.7v1.48h10.34v-1.48h-1.7l-.62-1.69c3.03-1.13,5.28-4.07,5.28-7.61h0Zm-10.02,9.3l.48-1.3c.46.08.94.12,1.42.12s.95-.04,1.42-.12l.48,1.3h-3.79Zm1.9-2.66c-3.67,0-6.65-2.98-6.65-6.64S4.46,1.48,8.13,1.48s6.65,2.98,6.65,6.64-2.98,6.64-6.65,6.64Zm2.96-8.85c-.33,0-.66.07-.96.22.14-.3.22-.62.22-.95,0-1.22-.99-2.21-2.22-2.21s-2.22.99-2.22,2.21c0,.33.07.66.22.95-.3-.14-.62-.22-.96-.22-1.22,0-2.22.99-2.22,2.21s.99,2.21,2.22,2.21c.33,0,.66-.07.96-.22-.14.3-.22.62-.22.95,0,1.22.99,2.21,2.22,2.21s2.22-.99,2.22-2.21c0-.33-.07-.66-.22-.95.3.14.62.22.96.22,1.22,0,2.22-.99,2.22-2.21s-.99-2.21-2.22-2.21Zm-5.54,2.85c-.11.07-.24.1-.37.1-.41,0-.74-.33-.74-.74s.33-.74.74-.74c.13,0,.26.03.37.1l1.11.64-1.11.64Zm2.59,3.05c-.41,0-.74-.33-.74-.74,0-.13.03-.26.1-.37l.64-1.11.64,1.11c.07.11.1.24.1.37,0,.41-.33.74-.74.74Zm.64-6.27l-.64,1.11-.64-1.11c-.07-.11-.1-.24-.1-.37,0-.41.33-.74.74-.74s.74.33.74.74c0,.13-.03.26-.1.37h0Zm2.31,3.32c-.13,0-.26-.03-.37-.1l-1.11-.64,1.11-.64c.11-.07.24-.1.37-.1.41,0,.74.33.74.74s-.33.74-.74.74h0Z"/>
  </g>
</svg>