<svg xmlns="http://www.w3.org/2000/svg" viewBox="0 0 20.35 20.35"><defs><style>.cls-1{fill:#fff;fill-rule:evenodd;}</style></defs><g id="Camada_2" data-name="Camada 2"><g id="Header"><path class="cls-1" d="M10.17,0A10.18,10.18,0,0,0,1.62,15.69L.08,19.09a.89.89,0,0,0,.81,1.26.59.59,0,0,0,.23,0l4.26-1.16A10.18,10.18,0,1,0,10.17,0Zm0,18.57A8.45,8.45,0,0,1,6,17.43a.93.93,0,0,0-.45-.13,1,1,0,0,0-.24,0l-2.78.76,1-2.13a.89.89,0,0,0-.09-.89,8.31,8.31,0,0,1-1.58-4.91,8.4,8.4,0,1,1,8.39,8.4Z"/><path class="cls-1" d="M14.08,11.7a1.74,1.74,0,0,0-1.48-.34c-.38.16-.63.76-.88,1.07a.37.37,0,0,1-.48.1A6.71,6.71,0,0,1,7.89,9.66.41.41,0,0,1,8,9.1a2.16,2.16,0,0,0,.6-1,2.12,2.12,0,0,0-.27-1.17,2.84,2.84,0,0,0-.86-1.3,1.21,1.21,0,0,0-1.29.19,2.64,2.64,0,0,0-.9,2.07,3,3,0,0,0,.08.66A5.32,5.32,0,0,0,5.94,10c.2.34.42.67.66,1a10.07,10.07,0,0,0,2.84,2.64,9.09,9.09,0,0,0,1.78.85,4,4,0,0,0,2.07.32,2.48,2.48,0,0,0,1.87-1.39,1.17,1.17,0,0,0,.09-.71C15.14,12.22,14.48,11.93,14.08,11.7Z"/></g></g></svg>