<?xml version="1.0" encoding="UTF-8"?>
<svg id="Camada_2" data-name="Camada 2" xmlns="http://www.w3.org/2000/svg" viewBox="0 0 44.7 39.78">
  <defs>
    <style>
      .cls-1 {
        fill: #878787;
        stroke-width: 0px;
      }
    </style>
  </defs>
  <g id="Header">
    <g>
      <g>
        <path class="cls-1" d="m25.36,8.46c-2.58-1.98-5.78-2.85-9.02-2.45-6.69.84-11.46,6.93-10.63,13.57.4,3.22,2.05,6.08,4.63,8.07,2.16,1.66,4.76,2.54,7.46,2.54.52,0,1.04-.03,1.56-.1,6.69-.84,11.46-6.92,10.63-13.56-.4-3.22-2.05-6.09-4.63-8.08Zm-6.33,19.02c-2.54.32-5.06-.36-7.08-1.92-2.02-1.55-3.31-3.79-3.62-6.31-.65-5.2,3.09-9.97,8.34-10.63.41-.05.82-.08,1.23-.08,2.12,0,4.16.69,5.86,2,2.02,1.56,3.31,3.8,3.62,6.32.65,5.19-3.09,9.96-8.34,10.62Z"/>
        <path class="cls-1" d="m44.67,33.41c-.1-.79-.5-1.49-1.13-1.98l-8.52-6.56c1.19-2.86,1.61-5.98,1.22-9.08-.43-3.43-1.77-6.62-3.97-9.2-1.24-1.45-3.66-3.37-4.64-3.98C24.16.48,20.07-.37,15.95.15,5.99,1.4-1.1,10.45.14,20.32c.42,3.34,1.61,6.55,3.82,8.98,2.46,2.7,2.06,2.13,3.06,3.02,3.83,2.95,8.6,4.24,13.42,3.64,3.11-.39,6.05-1.56,8.56-3.39l8.54,6.6c.54.41,1.17.61,1.8.61.88,0,1.75-.39,2.33-1.13l2.39-3.05c.49-.62.71-1.4.61-2.19Zm-2.68.56l-2.39,3.05c-.11.14-.31.16-.45.06l-9.35-7.22c-.24-.18-.52-.28-.81-.28s-.6.1-.84.3c-2.3,1.89-5.08,3.09-8.05,3.46-4.13.52-8.2-.59-11.48-3.11-3.28-2.52-5.36-6.16-5.88-10.23C1.7,11.56,7.76,3.83,16.28,2.76c4.13-.52,8.21.59,11.48,3.11,3.27,2.52,5.36,6.16,5.87,10.25.37,2.95-.12,5.92-1.42,8.58-.27.56-.12,1.24.38,1.62l9.34,7.2c.09.07.12.15.12.21,0,.06,0,.15-.07.24Z"/>
      </g>
      <path class="cls-1" d="m16.79,16.86v-4.38s2.59,0,2.59,0v4.38s4.58,0,4.58,0v2.69s-4.58,0-4.58,0v4.38s-2.59,0-2.59,0v-4.38s-4.58,0-4.58,0v-2.69h4.58Z"/>
    </g>
  </g>
</svg>