<?xml version="1.0" encoding="UTF-8"?>
<svg id="Camada_2" data-name="Camada 2" xmlns="http://www.w3.org/2000/svg" viewBox="0 0 33.53 29.71">
  <defs>
    <style>
      .cls-1 {
        fill: #a8a8a7;
        stroke-width: 0px;
      }
    </style>
  </defs>
  <g id="Header">
    <g>
      <path class="cls-1" d="m8.33,20.55c1.61.08,3.13-.21,4.6-.87.66-.29,1.34-.59,2.04-.72,1.69-.31,3.4-.52,5.1-.76.51-.07,1.02-.18,1.52-.15,1.08.06,1.87.88,1.99,1.94.11,1.04-.51,1.99-1.56,2.3-.81.25-1.63.46-2.45.68,0,.04-.01.07-.02.11.42.1.84.25,1.26.28.71.05,1.42.03,2.13,0,.4-.02.82-.07,1.2-.2,2.29-.75,4.58-1.52,6.87-2.28,1-.33,1.98.12,2.36,1.05.38.92.01,1.89-.91,2.38-2.56,1.36-5.12,2.72-7.68,4.07-.22.12-.47.2-.72.25-1.63.33-3.26.66-4.89.97-.3.06-.62.05-.92-.01-.98-.22-1.95-.5-2.94-.71-1.26-.27-2.52-.6-3.8-.71-1.45-.12-2.93-.03-4.39-.03-.09,0-.19.02-.31.03,0,.28,0,.53,0,.79-.02.46-.27.72-.72.73-1.79,0-3.58,0-5.38,0-.45,0-.72-.27-.72-.72,0-3.16,0-6.31,0-9.47,0-.45.27-.72.72-.72,1.79,0,3.58,0,5.38,0,.46,0,.71.26.72.72.01.33,0,.65,0,1.04.54,0,1.02-.02,1.5,0Zm.07,6.25c1.63.05,3.27-.17,4.89.19,1.27.28,2.55.56,3.8.94,1.12.34,2.21.38,3.33.07.76-.21,1.55-.36,2.34-.48.9-.13,1.71-.48,2.5-.91,2.09-1.13,4.19-2.22,6.28-3.33.09-.05.17-.1.26-.14.26-.14.43-.34.31-.65-.13-.33-.39-.39-.7-.29-.63.2-1.27.42-1.9.63-1.8.6-3.61,1.2-5.41,1.8-.21.07-.44.09-.67.11-2.09.18-4.1-.12-6.03-.95-.16-.07-.32-.11-.48-.17-.33-.12-.54-.34-.53-.69.01-.35.23-.56.57-.65,1.25-.34,2.49-.68,3.74-1.02.3-.08.61-.16.9-.25.47-.15.69-.54.58-.99-.1-.41-.49-.65-.95-.59-1.97.28-3.94.54-5.9.85-.51.08-1.01.29-1.48.51-1.89.89-3.88,1.26-5.96,1.13-.34-.02-.68,0-1.03,0,0,1.64,0,3.24,0,4.88.53,0,1.04-.01,1.55,0Zm-7.01-6.63c0,2.71,0,5.41,0,8.14h4.04v-8.14c-1.36,0-2.69,0-4.04,0Z"/>
      <g>
        <path class="cls-1" d="m23.24.1c1.89.27,3.5,1.1,4.82,2.46,1.25,1.29,1.98,2.84,2.24,4.61.02.12.03.23.05.35.01.32.02.65.03.97-.03.31-.05.63-.1.94-.38,2.49-1.63,4.44-3.73,5.82-1.37.9-2.89,1.33-4.52,1.31-2.34-.03-4.34-.91-5.96-2.6-1.22-1.28-1.96-2.8-2.18-4.55-.33-2.61.41-4.89,2.21-6.81,1.2-1.28,2.68-2.08,4.39-2.42.27-.06.55-.09.83-.13.32-.01.65-.02.97-.03.31.03.63.05.94.1Zm-.9,15.18c3.86-.13,6.89-3.4,6.74-7.24-.15-3.86-3.39-6.88-7.24-6.73-3.86.15-6.88,3.38-6.74,7.23.14,3.86,3.38,6.87,7.23,6.74Z"/>
        <path class="cls-1" d="m21.38,6.24c.02.55.04,1.11.06,1.66,0,.1-.02.17-.1.23-.7.56-1.39,1.12-2.09,1.68-.23.19-.34.42-.26.71.13.45.65.61,1.03.32.43-.34.86-.69,1.28-1.03.38-.31.76-.62,1.15-.92.21-.16.3-.37.29-.63-.04-1.24-.09-2.49-.13-3.73-.01-.36-.23-.62-.55-.66-.3-.04-.59.12-.69.41-.04.1-.05.22-.04.33.01.54.04,1.09.05,1.63Z"/>
      </g>
    </g>
  </g>
</svg>