<?xml version="1.0" encoding="UTF-8"?>
<svg id="Camada_2" data-name="Camada 2" xmlns="http://www.w3.org/2000/svg" viewBox="0 0 25.37 25.37">
  <defs>
    <style>
      .cls-1 {
        fill: #a8a8a7;
        stroke-width: 0px;
      }
    </style>
  </defs>
  <g id="Header">
    <g>
      <path class="cls-1" d="m0,12.73C0,12.57,0,12.4,0,12.24c.07-.15.11-.31.2-.45.87-1.33,1.74-2.66,2.64-3.98.32-.47.8-.73,1.38-.78,1.18-.1,2.37-.19,3.55-.29.12-.01.26-.09.35-.18.37-.38.71-.78,1.07-1.16C12.14,2.32,15.75.59,19.98.14,20.44.09,20.89.05,21.35,0c.68,0,1.35,0,2.03,0,.06.01.13.04.19.04.86.09,1.54.7,1.72,1.55.03.13.05.26.07.38v2.03c-.07.61-.12,1.23-.2,1.84-.28,2.09-.86,4.1-1.86,5.96-1.12,2.09-2.66,3.85-4.45,5.39-.14.12-.23.24-.25.45-.08,1.14-.18,2.27-.26,3.41-.05.71-.4,1.24-.99,1.62-.71.46-1.41.95-2.13,1.4-.69.44-1.4.86-2.1,1.28h-.5s-.04-.03-.06-.04c-.6-.17-.95-.57-1.04-1.18-.1-.63-.19-1.25-.29-1.88-.06-.39-.12-.77-.19-1.16-.09,0-.13,0-.18.01-.68.11-1.26-.1-1.74-.58-1.44-1.43-2.87-2.87-4.31-4.3-.35-.35-.56-.78-.6-1.27-.02-.21,0-.42,0-.65-.02,0-.06-.02-.1-.03-.78-.12-1.57-.23-2.34-.37-.39-.07-.79-.15-1.16-.31C.27,13.46.12,13.09,0,12.73ZM23.87,3.35c0-.32,0-.64,0-.97,0-.07,0-.15,0-.22-.03-.51-.16-.66-.66-.66-.91,0-1.83,0-2.74.08-1.95.16-3.83.61-5.59,1.47-3.51,1.72-6.06,4.42-7.88,7.84-.06.12-.04.19.05.27,2.38,2.38,4.76,4.76,7.14,7.14.1.1.18.11.3.04.61-.36,1.24-.69,1.83-1.09,2.2-1.5,4.05-3.36,5.41-5.66,1.5-2.54,2.08-5.34,2.15-8.26ZM6.25,12.53c-.18.72-.34,1.4-.51,2.08-.07.26.01.46.2.64.3.29.6.59.89.89,1.1,1.1,2.2,2.19,3.29,3.29.18.18.36.26.62.2.3-.08.61-.12.92-.2.38-.1.76-.22,1.15-.34-2.19-2.19-4.35-4.35-6.56-6.56Zm10.8,6.07c-.08.04-.12.06-.16.09-1.31.86-2.71,1.54-4.21,2-.15.05-.16.13-.14.25.07.45.14.9.21,1.34.08.49.16.98.24,1.51,1.25-.83,2.47-1.63,3.68-2.45.1-.07.17-.23.19-.35.05-.25.05-.51.07-.76.04-.53.08-1.06.12-1.63ZM1.58,12.38c.99.15,1.93.3,2.88.45.18.03.21-.08.24-.2.38-1.24.93-2.42,1.59-3.53.15-.25.31-.5.49-.8-.87.07-1.69.13-2.5.22-.12.01-.25.16-.33.27-.32.46-.62.93-.93,1.4-.47.72-.95,1.43-1.44,2.18Z"/>
      <path class="cls-1" d="m0,24.42c.16-.2.3-.41.48-.58,1.44-1.44,2.87-2.89,4.32-4.32.14-.14.34-.25.52-.29.3-.06.55.07.71.34.16.27.15.55-.03.81-.05.07-.12.14-.18.2-1.47,1.48-2.95,2.95-4.43,4.42-.14.14-.31.24-.46.35h-.4C.3,25.25.12,25.07,0,24.82,0,24.69,0,24.56,0,24.42Z"/>
      <path class="cls-1" d="m0,20.07c.14-.2.25-.43.41-.6.72-.74,1.46-1.46,2.18-2.19.21-.21.46-.33.76-.26.55.13.77.8.38,1.21-.81.84-1.64,1.67-2.49,2.49-.38.37-.98.2-1.18-.29-.02-.05-.04-.11-.06-.16,0-.07,0-.13,0-.2Z"/>
      <path class="cls-1" d="m5.1,25.37s-.09-.04-.13-.06c-.52-.2-.69-.81-.3-1.21.81-.83,1.63-1.64,2.45-2.45.29-.29.75-.27,1.03,0,.29.28.31.74.01,1.05-.8.82-1.62,1.63-2.44,2.43-.11.11-.28.16-.42.24h-.2Z"/>
      <path class="cls-1" d="m17.39,11.7c-2.06,0-3.72-1.64-3.72-3.7,0-2.05,1.65-3.72,3.7-3.73,2.04,0,3.72,1.66,3.73,3.71,0,2.05-1.65,3.72-3.71,3.72Zm-2.23-3.71c0,1.23.98,2.22,2.21,2.23,1.24,0,2.25-.99,2.25-2.22,0-1.23-1.02-2.24-2.24-2.23-1.23,0-2.21,1-2.21,2.23Z"/>
    </g>
  </g>
</svg>