<?xml version="1.0" encoding="UTF-8"?>
<svg id="Camada_2" data-name="Camada 2" xmlns="http://www.w3.org/2000/svg" viewBox="0 0 38.11 39.95">
  <defs>
    <style>
      .cls-1 {
        fill: #a8a8a7;
        stroke-width: 0px;
      }
    </style>
  </defs>
  <g id="Header">
    <g>
      <path class="cls-1" d="m15.43,3.47c-6.61.02-11.95,5.34-11.95,11.92,0,6.57,5.33,11.94,11.88,11.94,6.65,0,11.97-5.3,11.98-11.95.01-6.55-5.36-11.92-11.91-11.91Zm-.19,21.04c-.62.26-.68.33-.68,1.01,0,.19,0,.38,0,.58-3.5-.14-7.77-2.62-9.33-7.24-1.57-4.64.28-9.41,3.44-11.79.67.64,1.33,1.28,2,1.9.15.14.33.25.51.36.33.21.67.16.86-.11.19-.27.1-.59-.19-.85-.63-.55-1.25-1.12-1.87-1.69-.1-.09-.17-.23-.27-.37.9-.59,1.86-1.01,2.87-1.27,2.87-.75,5.61-.41,8.21,1.05.23.13.36.28.36.54,0,1.06,0,2.12,0,3.21-2.22.32-4.44.34-6.63-.26-.09-.02-.17-.05-.26-.07-.37-.09-.68.06-.77.39-.09.32.08.64.46.73.72.17,1.44.36,2.17.46,1.83.26,3.65.16,5.47-.12,1.69-.26,2.93,1.01,2.61,2.71-.27,1.4-1.08,2.37-2.44,2.83-.41.14-.59.36-.67.79-.63,3.46-2.57,5.89-5.83,7.24Zm10.4-5.77c-1.73,5.25-6.65,7.47-9.88,7.36-.13-.36,0-.53.35-.7,3.19-1.49,5.22-3.94,6-7.39.07-.33.22-.49.52-.63,1.81-.82,2.91-2.72,2.75-4.7-.11-1.35-1.2-2.57-2.55-2.86-.15-.03-.3-.06-.46-.09v-2.47c2.8,2.11,4.82,6.81,3.28,11.48Z"/>
      <path class="cls-1" d="m9.81,15.38c.23-.26.18-.61-.13-.89-.65-.6-1.43-.88-2.3-.9-.86.03-1.63.31-2.27.9-.31.29-.36.63-.13.89.24.27.56.27.9,0,1-.81,2.04-.81,3.04,0,.34.28.65.28.89.01Z"/>
      <path class="cls-1" d="m18.67,14.5c-.65-.6-1.42-.88-2.3-.91-.88.03-1.65.31-2.3.91-.3.28-.34.64-.1.89.24.25.54.25.87,0,1.03-.83,2.03-.83,3.07,0,.33.26.63.26.87.01.24-.25.2-.61-.1-.89Z"/>
      <path class="cls-1" d="m13.33,19.59c-.96.78-1.93.78-2.89,0-.31-.25-.64-.26-.87-.01-.25.27-.22.59.1.89.63.58,1.37.87,2.23.87.84,0,1.58-.29,2.2-.85.33-.3.37-.61.14-.89-.23-.27-.57-.27-.9,0Z"/>
      <path class="cls-1" d="m21.95,15.05c.34.04.55-.2.66-.61.1-.38.25-.76.45-1.09.22-.37.26-.67,0-.9-.27-.23-.63-.17-.92.16-.43.5-.64,1.09-.7,1.82-.02.31.19.59.52.63Z"/>
      <path class="cls-1" d="m38.11,4.99c-.02-.92-.36-1.77-1.04-2.55-1.06-1.2-2.42-1.65-3.98-1.27-.68.17-1.31.56-2.03.88-.89-.79-2.03-1.15-3.33-.96-1.31.19-2.28.93-2.98,2.04-.12-.08-.2-.14-.29-.2-1.66-1.2-3.49-2.05-5.48-2.51-.82-.19-1.66-.29-2.49-.42h-2.11c-.6.09-1.21.15-1.81.26C3.77,1.89-1.82,10.72.54,19.36c1.4,5.11,4.66,8.6,9.6,10.51,1.23.47,1.63,1.13,1.45,2.43-.07.49-.14.98-.19,1.47,0,.04,0,.08,0,.12-.06.4-.12.8-.17,1.2-.07.5-.05,1,.04,1.47,0,.08.02.17.04.26.32,1.11.96,1.97,1.94,2.53.41.24.87.42,1.37.53.07.02.15.05.22.07h.03s.03,0,.04.01h1.09c.44-.15.9-.25,1.31-.45,0,0,.01,0,.02-.01v-.02c1.59-.8,2.54-2.52,2.28-4.39-.14-.99-.29-1.98-.41-2.97-.13-1.11.32-1.82,1.37-2.19,1.98-.71,3.76-1.76,5.29-3.21,3.5-3.34,5.15-7.44,4.9-12.28-.03-.54-.1-1.07-.15-1.66,1.13.26,1.92-.28,2.63-1.04.2-.21.4-.42.61-.63.94-.91,1.91-1.83,2.84-2.73.97-.94,1.47-2.05,1.41-3.37Zm-11.47,19.15c-1.7,2.23-3.92,3.76-6.55,4.71-1.44.52-2.19,1.73-2.05,3.25.07.68.19,1.36.28,2.05.1.77.3,1.53.08,2.32-.37,1.33-1.55,2.26-2.91,2.29-.35,0-.68-.04-.99-.14-.02,0-.03,0-.05-.01-.04-.01-.07-.02-.1-.04-.9-.35-1.61-1.11-1.89-2.09-.22-.79-.02-1.55.08-2.32.09-.68.21-1.36.28-2.05.09-.92-.15-1.72-.67-2.32,0,0,0,0,0,0-.41-.48-.99-.83-1.68-1.07C2.87,25.99-.95,17.15,2.34,9.79,4.63,4.67,8.65,1.78,14.25,1.24c3.62-.35,6.88.68,9.8,2.85.18.14.27.27.24.51-.19,1.42.27,2.6,1.28,3.6,1.14,1.12,2.27,2.26,3.39,3.4.14.14.26.33.3.52.97,4.41.11,8.44-2.62,12.03Zm3.71-12.83c-1.4-1.38-2.81-2.74-4.16-4.17-1.53-1.61-.75-4.24,1.39-4.82,1.08-.29,2.03-.02,2.84.75.73.68.77.68,1.51-.01.15-.14.31-.28.49-.39,1.06-.67,2.41-.59,3.39.18.54.43.9,1.01,1.04,1.64,0,0,0,0,0,0,.08.34.1.69.05,1.04,0,.03,0,.05-.01.08,0,.04-.01.07-.02.11,0,.04-.02.08-.03.12,0,.03-.01.06-.02.09,0,0,0,.01,0,.02-.13.47-.37.92-.75,1.31-.28.29-.56.58-.85.87-.02.02-.05.03-.07.05-.08.06-.15.14-.23.21-.96.96-1.91,1.92-2.87,2.87-.53.52-1.19.55-1.7.06Z"/>
    </g>
  </g>
</svg>